<?xml version="1.0" standalone="no"?>
<!DOCTYPE svg PUBLIC "-//W3C//DTD SVG 20010904//EN"
 "http://www.w3.org/TR/2001/REC-SVG-20010904/DTD/svg10.dtd">
<svg version="1.0" xmlns="http://www.w3.org/2000/svg"
 width="678.000000pt" height="443.000000pt" viewBox="0 0 678.000000 443.000000"
 preserveAspectRatio="xMidYMid meet">

<g transform="translate(0.000000,443.000000) scale(0.100000,-0.100000)"
fill="#000000" stroke="none">
<path d="M2860 4395 c0 -20 9 -54 20 -75 11 -22 16 -40 11 -40 -5 0 -3 -13 5
-30 19 -37 28 -39 22 -5 -3 14 -1 25 3 25 15 0 10 19 -11 40 -18 18 -18 21 -3
65 8 25 13 49 9 52 -3 3 -9 -8 -12 -26 -5 -24 -9 -29 -16 -19 -6 9 -7 5 -3
-11 5 -17 4 -21 -5 -16 -8 5 -10 19 -5 41 3 21 2 34 -5 34 -5 0 -10 -16 -10
-35z"/>
<path d="M3950 4380 c0 -13 28 -25 38 -16 3 4 0 11 -8 16 -20 13 -30 12 -30 0z"/>
<path d="M4007 4366 c-3 -8 0 -20 8 -26 10 -8 13 -5 11 15 -1 28 -11 33 -19
11z"/>
<path d="M2741 4361 c-11 -7 -9 -13 8 -30 27 -27 34 -27 26 0 -5 14 -2 25 6
30 11 7 9 9 -6 9 -11 0 -26 -4 -34 -9z"/>
<path d="M3970 4339 c0 -9 7 -22 15 -29 19 -16 19 0 0 26 -12 16 -14 16 -15 3z"/>
<path d="M3075 4326 c26 -87 65 -193 106 -284 11 -23 17 -47 13 -53 -3 -6 2
-19 11 -29 9 -10 18 -30 19 -44 1 -18 4 -22 14 -14 6 6 12 19 12 29 0 24 4 24
35 -3 24 -20 36 -46 16 -34 -5 4 -6 -4 -3 -16 5 -18 7 -19 10 -6 6 28 48 1 71
-44 10 -21 23 -39 27 -39 5 0 8 -7 7 -15 -1 -10 4 -13 15 -9 9 3 13 3 10 0 -4
-4 -2 -19 3 -33 5 -14 10 -41 11 -61 1 -20 7 -41 14 -48 13 -13 8 -49 -9 -70
-6 -9 -6 -13 2 -13 6 0 11 1 11 3 0 1 9 26 19 55 11 28 16 52 11 52 -19 0 -41
95 -26 118 4 7 4 12 -1 11 -4 -1 -20 3 -35 9 -30 12 -38 32 -13 32 8 0 15 -4
15 -9 0 -5 9 -11 21 -14 15 -4 18 -2 10 7 -14 16 -4 26 17 19 14 -5 14 -3 -2
15 -17 19 -17 22 -3 22 13 0 17 9 17 38 0 31 19 87 20 57 0 -16 48 -14 54 2 4
9 2 11 -6 7 -8 -5 -9 2 -5 24 4 20 1 34 -8 42 -21 17 -31 -13 -17 -46 8 -15 8
-24 1 -24 -5 0 -13 9 -17 21 -8 19 -9 20 -22 4 -8 -10 -13 -33 -11 -56 3 -44
-5 -50 -19 -16 -8 17 -9 10 -8 -32 1 -35 -2 -56 -10 -59 -7 -2 -12 6 -13 20 0
15 -3 18 -6 8 -10 -25 -26 -30 -40 -12 -15 20 -17 36 -3 27 5 -3 2 8 -8 24
-16 29 -17 30 -22 9 -5 -20 -10 -18 -60 33 -77 76 -100 106 -100 129 0 11 -4
20 -10 20 -14 0 -31 37 -32 71 -1 17 -4 25 -8 19 -7 -12 -30 55 -30 89 0 11
-4 21 -8 21 -5 0 -16 15 -26 33 -9 17 -14 24 -11 13z m472 -318 c-3 -8 -6 -5
-6 6 -1 11 2 17 5 13 3 -3 4 -12 1 -19z m-310 -38 c7 -10 9 -21 5 -24 -4 -2
-12 7 -19 20 -13 29 -3 32 14 4z"/>
<path d="M3130 4321 c0 -22 19 -41 40 -40 10 0 11 2 3 6 -20 8 -15 23 7 23 25
0 27 20 3 21 -10 0 -26 2 -35 4 -12 2 -18 -3 -18 -14z"/>
<path d="M4245 4319 c2 -33 22 -44 34 -20 7 12 17 18 26 15 8 -4 15 -1 15 4 0
15 -18 24 -25 13 -3 -6 -15 -7 -29 -2 -19 8 -22 6 -21 -10z"/>
<path d="M4333 4313 c-1 -19 1 -22 8 -12 11 17 12 39 2 39 -5 0 -9 -12 -10
-27z"/>
<path d="M2726 4315 c4 -8 8 -15 10 -15 2 0 4 7 4 15 0 8 -4 15 -10 15 -5 0
-7 -7 -4 -15z"/>
<path d="M4196 4322 c-3 -5 1 -18 9 -28 14 -18 14 -18 15 3 0 23 -15 39 -24
25z"/>
<path d="M4042 4278 c22 -100 28 -186 14 -213 -9 -18 -16 -22 -19 -13 -13 32
-10 -147 3 -206 5 -22 6 -52 3 -67 -3 -15 0 -35 7 -46 9 -14 10 5 5 87 -3 58
-7 117 -10 129 -5 28 4 49 14 32 4 -6 12 -2 20 11 11 18 11 20 -2 15 -20 -8
-29 3 -16 20 6 7 8 13 4 13 -4 0 5 20 19 45 13 25 21 43 16 40 -5 -3 -6 11 -3
31 4 24 2 35 -4 31 -14 -9 -30 29 -38 86 -3 26 -10 47 -15 47 -4 0 -4 -19 2
-42z m35 -145 c-3 -10 -5 -4 -5 12 0 17 2 24 5 18 2 -7 2 -21 0 -30z"/>
<path d="M3880 4281 c0 -5 5 -13 10 -16 6 -3 10 -2 10 4 0 5 -4 13 -10 16 -5
3 -10 2 -10 -4z"/>
<path d="M2796 4240 c36 -39 44 -45 44 -35 0 9 -62 75 -71 75 -6 0 7 -18 27
-40z"/>
<path d="M4108 4261 c-23 -23 -23 -31 2 -31 22 0 38 26 24 40 -5 4 -17 0 -26
-9z"/>
<path d="M3853 4225 c-3 -9 -3 -18 -1 -21 3 -3 8 4 11 16 6 23 -1 27 -10 5z"/>
<path d="M3172 4209 c-7 -11 -8 -20 -2 -24 6 -3 10 1 10 9 0 8 10 16 23 18 22
3 22 4 1 9 -14 4 -25 0 -32 -12z"/>
<path d="M5310 4208 c0 -9 5 -20 10 -23 13 -8 13 5 0 25 -8 13 -10 13 -10 -2z"/>
<path d="M2917 4190 c-12 -18 -15 -116 -3 -127 3 -4 6 -16 6 -27 0 -17 2 -18
9 -7 6 9 6 22 0 33 -6 11 -9 33 -7 51 4 32 4 32 17 -13 7 -25 15 -53 16 -62 2
-10 6 -22 9 -26 3 -5 7 -21 10 -37 6 -35 46 -80 46 -53 0 9 -4 19 -9 22 -5 3
-11 16 -14 28 -15 65 -66 193 -76 190 -8 -1 -7 4 1 18 8 13 16 16 22 10 12
-12 26 -13 26 -1 0 18 -40 19 -53 1z"/>
<path d="M3246 4195 c4 -8 8 -15 10 -15 2 0 4 7 4 15 0 8 -4 15 -10 15 -5 0
-7 -7 -4 -15z"/>
<path d="M3450 4182 c0 -10 6 -27 14 -37 13 -18 14 -18 20 3 4 12 12 22 17 22
5 0 9 5 9 11 0 5 -4 8 -9 4 -5 -3 -12 -1 -16 5 -10 17 -35 11 -35 -8z m30 -12
c0 -5 -2 -10 -4 -10 -3 0 -8 5 -11 10 -3 6 -1 10 4 10 6 0 11 -4 11 -10z"/>
<path d="M3813 4183 c-12 -2 -27 -10 -33 -18 -9 -11 -7 -12 9 -8 20 5 20 4 6
-36 -8 -23 -10 -41 -5 -41 6 0 10 9 10 20 0 11 5 20 10 20 6 0 10 7 10 15 0 8
6 12 14 9 10 -4 12 2 9 20 -3 14 -6 25 -7 25 0 -1 -11 -4 -23 -6z"/>
<path d="M3560 4176 c0 -10 52 -57 57 -52 7 7 -36 56 -49 56 -4 0 -8 -2 -8 -4z"/>
<path d="M4532 4160 c0 -14 2 -19 5 -12 2 6 2 18 0 25 -3 6 -5 1 -5 -13z"/>
<path d="M2770 4163 c0 -5 9 -18 20 -28 11 -10 20 -16 20 -13 0 3 -9 15 -20
28 -11 13 -20 19 -20 13z"/>
<path d="M3081 4154 c0 -11 3 -14 6 -6 3 7 2 16 -1 19 -3 4 -6 -2 -5 -13z"/>
<path d="M4490 4100 c-7 -33 -16 -57 -21 -54 -5 3 -6 -2 -3 -10 3 -9 10 -14
14 -11 9 5 33 125 27 131 -2 3 -10 -23 -17 -56z"/>
<path d="M3190 4125 c0 -8 4 -15 10 -15 5 0 7 7 4 15 -4 8 -8 15 -10 15 -2 0
-4 -7 -4 -15z"/>
<path d="M3670 4119 c0 -20 24 -26 35 -9 4 6 11 8 16 5 5 -3 7 0 4 7 -3 7 -16
14 -30 14 -18 2 -25 -3 -25 -17z"/>
<path d="M3745 4130 c3 -5 8 -10 11 -10 2 0 4 5 4 10 0 6 -5 10 -11 10 -5 0
-7 -4 -4 -10z"/>
<path d="M3251 4103 c-18 -20 -6 -29 14 -10 8 9 12 18 8 20 -5 3 -14 -2 -22
-10z"/>
<path d="M4172 4100 c0 -14 2 -19 5 -12 2 6 2 18 0 25 -3 6 -5 1 -5 -13z"/>
<path d="M4790 4110 c0 -5 5 -10 11 -10 5 0 7 5 4 10 -3 6 -8 10 -11 10 -2 0
-4 -4 -4 -10z"/>
<path d="M2845 4100 c3 -5 10 -10 16 -10 5 0 9 5 9 10 0 6 -7 10 -16 10 -8 0
-12 -4 -9 -10z"/>
<path d="M3348 4099 c-10 -5 -18 -15 -18 -20 0 -6 5 -7 10 -4 6 4 18 1 26 -6
13 -10 17 -10 24 1 5 9 5 20 -2 27 -12 15 -17 16 -40 2z"/>
<path d="M5321 4074 c0 -11 3 -14 6 -6 3 7 2 16 -1 19 -3 4 -6 -2 -5 -13z"/>
<path d="M3655 4070 c-4 -6 -14 -9 -24 -6 -9 4 -5 -3 9 -13 22 -17 26 -18 33
-4 11 18 -7 41 -18 23z"/>
<path d="M4281 4035 c-1 -46 -3 -49 -16 -31 -8 11 -15 15 -15 10 0 -6 4 -14 9
-19 5 -6 14 -27 21 -48 7 -21 13 -37 14 -35 1 2 -1 41 -4 88 -5 62 -7 72 -9
35z"/>
<path d="M5162 4060 c0 -14 2 -19 5 -12 2 6 2 18 0 25 -3 6 -5 1 -5 -13z"/>
<path d="M3226 4062 c-3 -5 1 -9 9 -9 8 0 12 4 9 9 -3 4 -7 8 -9 8 -2 0 -6 -4
-9 -8z"/>
<path d="M3485 4061 c-3 -5 -1 -12 5 -16 5 -3 10 1 10 9 0 18 -6 21 -15 7z"/>
<path d="M4751 4053 c-1 -30 -21 -40 -28 -14 -6 25 -26 29 -21 4 2 -10 14 -23
27 -29 13 -7 26 -17 30 -22 3 -5 20 5 38 24 l31 33 -33 -4 c-26 -4 -35 -1 -38
13 -4 13 -5 12 -6 -5z"/>
<path d="M3780 4051 c0 -6 5 -13 10 -16 6 -3 10 1 10 9 0 9 -4 16 -10 16 -5 0
-10 -4 -10 -9z"/>
<path d="M3109 4048 c-10 -33 -7 -48 9 -48 10 0 23 -5 30 -12 7 -7 12 -8 12
-4 0 4 -11 17 -25 28 -14 11 -23 24 -20 29 4 5 4 9 1 9 -3 0 -6 -1 -7 -2z"/>
<path d="M3899 4038 c-11 -8 -11 -9 3 -4 12 3 18 -2 20 -16 4 -28 36 -48 47
-29 16 25 -44 68 -70 49z"/>
<path d="M5330 4034 c0 -7 8 -10 20 -7 11 3 20 8 20 12 0 4 -9 7 -20 7 -11 0
-20 -6 -20 -12z"/>
<path d="M3073 4020 c-1 -11 2 -22 8 -25 5 -4 9 5 9 19 0 30 -15 35 -17 6z"/>
<path d="M4410 4028 c0 -6 -8 -21 -17 -32 -18 -21 -18 -21 4 -3 12 11 27 16
33 12 9 -6 9 -2 1 14 -13 23 -21 27 -21 9z"/>
<path d="M4604 4027 c-12 -7 -19 -18 -17 -24 7 -21 30 -15 36 9 8 28 7 29 -19
15z"/>
<path d="M3326 4013 c-6 -14 -5 -15 5 -6 7 7 10 15 7 18 -3 3 -9 -2 -12 -12z"/>
<path d="M4182 4020 c-1 -33 55 -140 72 -140 4 0 1 11 -8 25 -9 14 -15 35 -13
47 2 13 2 17 0 11 -8 -24 -21 -13 -36 30 -9 23 -15 35 -15 27z"/>
<path d="M3704 3995 c-29 -29 -46 -33 -37 -8 4 11 3 14 -5 9 -7 -4 -12 -18
-12 -32 l0 -25 45 32 c25 18 45 36 45 41 0 14 -10 9 -36 -17z"/>
<path d="M3580 4001 c0 -6 5 -13 10 -16 31 -19 -15 -105 -55 -105 -17 0 -17
-2 -5 -10 9 -6 18 -6 24 0 6 6 13 10 18 10 11 0 -2 -61 -20 -90 l-15 -25 21
19 c12 11 22 28 22 38 0 11 5 28 10 39 8 13 7 19 0 19 -6 0 -2 9 8 20 19 20
21 46 7 89 -6 21 -25 29 -25 12z"/>
<path d="M4150 4004 c0 -5 7 -18 15 -28 8 -11 15 -16 15 -10 0 5 -7 18 -15 28
-8 11 -15 16 -15 10z"/>
<path d="M4456 3995 c4 -8 8 -15 10 -15 2 0 4 7 4 15 0 8 -4 15 -10 15 -5 0
-7 -7 -4 -15z"/>
<path d="M4506 3993 c-6 -14 -5 -15 5 -6 7 7 10 15 7 18 -3 3 -9 -2 -12 -12z"/>
<path d="M4481 3978 c0 -9 -4 -25 -7 -35 -5 -17 -5 -17 6 0 6 10 9 25 7 35 -4
15 -5 15 -6 0z"/>
<path d="M3418 3968 c5 -5 16 -8 23 -6 8 3 3 7 -10 11 -17 4 -21 3 -13 -5z"/>
<path d="M4302 3960 c0 -14 2 -19 5 -12 2 6 2 18 0 25 -3 6 -5 1 -5 -13z"/>
<path d="M4432 3964 c-11 -12 -9 -14 8 -14 11 0 20 4 20 9 0 17 -15 19 -28 5z"/>
<path d="M5266 3965 c-11 -8 -15 -15 -9 -15 6 0 16 7 23 15 16 19 11 19 -14 0z"/>
<path d="M3176 3955 c4 -8 11 -15 16 -15 6 0 5 6 -2 15 -7 8 -14 15 -16 15 -2
0 -1 -7 2 -15z"/>
<path d="M3330 3965 c0 -5 5 -17 10 -25 5 -8 10 -10 10 -5 0 6 -5 17 -10 25
-5 8 -10 11 -10 5z"/>
<path d="M4340 3945 c-13 -14 -19 -25 -13 -25 6 0 18 11 27 25 9 14 15 25 13
25 -2 0 -14 -11 -27 -25z"/>
<path d="M4572 3953 c-25 -5 -50 -42 -34 -52 5 -3 13 -21 17 -38 6 -30 25 -47
25 -22 0 5 5 7 10 4 23 -14 8 32 -16 50 l-26 19 29 23 c15 13 26 22 23 22 -3
-1 -15 -4 -28 -6z"/>
<path d="M3153 3923 c-1 -19 1 -22 8 -12 11 17 12 39 2 39 -5 0 -9 -12 -10
-27z"/>
<path d="M2921 3927 c-14 -14 -14 -37 -1 -37 6 0 14 8 18 18 5 14 7 12 12 -10
4 -24 7 -25 24 -13 16 12 16 16 5 28 -21 20 -45 27 -58 14z"/>
<path d="M3041 3918 c-7 -11 -8 -17 -2 -14 5 4 12 2 16 -4 3 -5 1 -10 -4 -10
-19 0 -12 -56 14 -105 16 -29 23 -55 19 -67 -4 -13 -2 -18 4 -14 6 3 20 -9 31
-26 11 -18 32 -44 47 -57 24 -23 25 -26 8 -38 -9 -7 -21 -10 -26 -7 -4 3 -20
8 -35 10 -36 7 -43 12 -37 28 3 8 1 17 -4 20 -5 3 -12 -3 -15 -14 -4 -17 -8
-18 -36 -7 -17 6 -34 20 -37 31 -5 15 -8 16 -16 5 -7 -10 -11 -11 -14 -2 -3 7
-12 9 -20 6 -19 -7 -46 16 -40 34 7 18 -9 16 -25 -4 -11 -13 -11 -17 -1 -21 7
-2 18 -10 26 -17 7 -8 16 -12 18 -10 4 5 128 -39 160 -56 10 -5 24 -9 33 -9 9
0 12 -6 8 -17 -5 -15 -3 -16 8 -5 16 15 63 16 53 1 -4 -8 0 -8 15 0 12 7 20 8
19 4 -3 -12 13 -76 22 -88 20 -27 19 -60 -1 -76 -15 -11 -20 -23 -16 -45 l4
-29 8 33 c9 39 25 42 26 5 0 -16 2 -38 3 -50 3 -27 -2 -28 -32 -7 -21 14 -23
14 -31 -8 -16 -41 -24 -63 -25 -71 -1 -4 -7 -12 -15 -16 -18 -11 -5 -31 20
-31 21 0 28 -40 7 -40 -7 0 -5 -5 6 -11 14 -9 20 -8 26 1 4 7 13 9 19 6 16
-10 13 10 -4 28 -22 21 -19 27 10 20 20 -5 25 -2 26 12 0 11 3 14 6 7 10 -27
23 -12 19 22 -3 25 -1 35 9 35 24 0 29 23 8 40 -30 24 -43 54 -43 97 0 21 -9
62 -20 91 -24 63 -25 73 -5 66 8 -4 15 -12 15 -19 0 -7 10 -15 21 -18 16 -4
20 -11 15 -24 -4 -9 -4 -14 0 -10 4 4 13 -5 20 -20 12 -27 12 -27 13 -5 l1 23
30 -21 c17 -12 30 -30 30 -41 0 -15 5 -19 19 -14 15 4 20 -1 25 -27 3 -18 4
-42 1 -53 -2 -11 -4 -24 -5 -30 -1 -5 -8 7 -15 28 -8 21 -12 44 -8 52 4 11 1
13 -11 9 -20 -8 -21 -71 -2 -97 12 -15 18 -16 35 -7 24 12 26 4 11 -35 -5 -14
-14 -24 -19 -20 -5 3 -13 0 -17 -6 -8 -13 55 -2 71 12 12 12 25 11 25 -2 0
-10 -58 -35 -72 -31 -5 1 -8 -2 -8 -8 0 -5 -7 -10 -15 -10 -9 0 -21 -11 -27
-25 -6 -14 -15 -25 -20 -25 -4 0 -7 -3 -7 -7 3 -20 -4 -34 -47 -89 -25 -32
-55 -78 -66 -102 -11 -23 -33 -56 -48 -72 -15 -16 -25 -32 -22 -35 3 -3 -9
-25 -26 -49 -18 -24 -32 -48 -32 -53 0 -5 -9 -26 -20 -48 -15 -28 -20 -33 -20
-18 0 11 7 33 15 49 8 15 12 30 10 32 -7 7 -25 -9 -25 -22 0 -7 -35 -33 -77
-58 -43 -26 -89 -58 -102 -72 -14 -14 -30 -26 -36 -26 -12 0 -35 42 -35 63 1
7 45 34 99 62 95 47 99 50 90 75 -5 14 -12 31 -15 39 -9 27 -13 4 -4 -28 9
-31 8 -32 -45 -56 -30 -14 -59 -25 -64 -25 -6 0 -11 -4 -11 -8 0 -4 -14 -16
-30 -26 l-30 -17 -21 46 c-11 25 -23 61 -26 79 -4 28 -1 36 25 54 20 14 32 34
36 57 4 20 15 44 25 54 10 10 21 26 25 37 8 19 8 19 17 -1 7 -16 8 -13 6 14
-2 30 1 35 32 46 21 7 30 14 24 18 -7 4 -14 3 -18 -3 -8 -13 -55 -13 -55 0 0
6 -4 10 -10 10 -5 0 -10 -6 -10 -14 0 -8 -6 -17 -12 -20 -7 -3 -3 -3 10 0 12
3 22 3 22 1 0 -3 -16 -31 -36 -63 -19 -33 -38 -71 -41 -86 -6 -31 -47 -62 -70
-54 -11 5 -13 14 -8 34 12 46 16 157 5 146 -5 -5 -10 -38 -11 -72 -1 -34 -6
-62 -10 -62 -5 0 -9 5 -9 11 0 5 -5 7 -10 4 -6 -4 -8 -11 -5 -16 4 -5 2 -9 -3
-9 -6 0 -8 23 -7 50 2 28 0 50 -6 50 -5 0 -9 5 -9 11 0 6 -6 17 -14 24 -14 14
-31 94 -22 103 3 3 10 -8 16 -24 6 -16 14 -31 18 -34 4 -3 12 -14 18 -24 6
-11 16 -22 24 -24 7 -3 10 0 6 7 -4 6 -2 11 4 11 6 0 8 5 5 11 -4 6 -14 8 -23
4 -9 -3 -13 -3 -9 1 7 7 -16 43 -52 81 -11 12 -23 34 -26 50 -3 15 -2 22 1 16
8 -18 27 -16 21 2 -4 8 -2 17 3 20 6 4 10 1 10 -6 0 -7 3 -9 6 -6 4 4 1 13 -6
22 -11 13 -16 12 -39 -13 -21 -22 -23 -29 -13 -37 16 -13 6 -68 -11 -58 -6 3
-7 1 -3 -5 4 -7 13 -12 20 -12 8 0 13 -13 14 -30 1 -28 13 -74 34 -129 5 -13
7 -26 4 -28 -11 -11 -109 33 -118 52 -16 35 -205 166 -237 165 -11 -1 44 -40
57 -40 6 0 12 -9 12 -20 0 -13 -14 -26 -42 -39 -39 -19 -41 -20 -15 -21 15 0
27 3 27 8 0 4 12 15 26 25 24 18 25 18 58 -2 50 -31 63 -50 45 -63 -11 -8 -10
-9 5 -4 21 7 56 -19 56 -40 0 -8 6 -11 15 -8 22 9 18 -5 -7 -27 -13 -10 -18
-18 -12 -19 5 0 21 10 34 22 22 21 23 21 37 2 8 -10 16 -18 18 -16 29 15 58
-13 60 -58 1 -8 6 -14 13 -13 7 2 11 0 11 -5 -1 -4 -1 -14 0 -22 1 -13 2 -13
11 0 10 16 7 21 34 -60 8 -24 14 -46 12 -47 -6 -7 -72 22 -90 39 -11 10 -23
18 -28 18 -11 0 -48 33 -48 42 0 5 8 8 18 8 13 0 19 9 20 35 2 28 0 33 -13 29
-10 -4 -13 -13 -10 -25 7 -21 -10 -26 -19 -6 -3 6 -4 1 -3 -12 1 -13 -4 -26
-10 -28 -7 -3 -13 3 -13 12 0 9 -4 13 -10 10 -5 -3 -10 -2 -10 4 0 5 -14 12
-31 16 -26 6 -30 11 -26 32 5 28 -17 43 -36 24 -17 -17 -29 -14 -59 14 -16 14
-28 20 -30 13 -3 -7 -13 -5 -31 7 -15 10 -30 15 -33 12 -7 -6 78 -47 98 -47
10 0 10 -2 -1 -9 -7 -5 -10 -14 -7 -20 11 -17 26 -13 19 5 -5 14 -3 15 18 4
17 -10 24 -10 27 -1 5 16 22 14 22 -4 0 -7 -7 -18 -15 -23 -20 -11 -8 -44 14
-39 9 2 15 9 14 15 -4 18 6 15 59 -19 49 -32 74 -63 70 -86 -2 -7 2 -13 8 -13
5 0 10 7 10 15 0 13 4 14 23 4 12 -7 24 -15 27 -18 3 -4 24 -15 48 -25 23 -11
42 -24 42 -31 0 -6 13 -32 30 -57 l30 -45 -20 -37 c-19 -39 -17 -63 8 -82 13
-9 13 -12 -2 -17 -9 -4 -16 -17 -16 -30 0 -15 -9 -29 -25 -37 -28 -15 -35 -43
-9 -33 12 5 15 1 11 -13 -6 -22 -21 -104 -22 -120 0 -6 -6 -19 -14 -28 -12
-14 -12 -16 3 -10 10 4 16 1 16 -9 0 -16 -27 -30 -41 -21 -5 3 -9 -2 -9 -10 0
-9 -4 -16 -10 -16 -20 0 -10 -27 15 -40 28 -15 33 -30 10 -30 -9 0 -15 -9 -15
-25 0 -14 -5 -25 -11 -25 -5 0 -7 -4 -4 -10 3 -5 2 -10 -3 -10 -11 0 -6 -34
11 -68 12 -26 24 -29 24 -5 -1 48 4 73 13 73 6 0 8 -16 5 -37 -2 -21 -7 -73
-11 -115 -4 -56 -9 -75 -18 -72 -8 3 -11 16 -9 32 4 21 2 24 -6 12 -9 -13 -11
-13 -11 1 0 9 -7 22 -15 29 -8 7 -15 26 -15 42 0 30 -1 30 -24 15 -22 -15 -25
-14 -45 11 -11 14 -21 32 -21 39 0 7 -7 13 -15 13 -9 0 -12 6 -8 17 4 11 3 14
-5 9 -8 -4 -35 13 -69 43 -33 30 -66 51 -80 51 -13 0 -23 6 -23 13 0 17 -49
72 -64 72 -15 0 -146 129 -146 143 0 5 -7 13 -16 16 -8 3 -13 10 -9 16 4 6 -6
7 -25 4 -24 -5 -29 -4 -25 8 6 15 -88 108 -108 108 -5 0 -20 9 -34 20 -18 14
-30 17 -42 11 -9 -5 -35 -6 -58 -1 -28 5 -44 4 -46 -4 -3 -7 -9 -7 -21 3 -9 8
-19 11 -22 8 -11 -11 6 -25 39 -32 17 -4 37 -11 42 -15 6 -4 32 -11 59 -15 71
-10 95 -27 230 -160 127 -126 283 -269 298 -274 7 -2 37 -28 65 -57 29 -30 57
-54 63 -54 5 0 35 -31 66 -70 31 -38 60 -68 64 -65 5 3 6 -4 3 -15 -3 -12 0
-20 6 -20 7 0 9 -5 6 -10 -3 -6 -1 -10 5 -10 6 0 8 -10 4 -25 -3 -14 -2 -25 4
-25 5 0 7 -19 4 -45 -4 -42 19 -132 61 -235 10 -25 14 -34 16 -47 0 -4 6 -2
12 4 12 12 49 6 49 -8 0 -5 -10 -8 -22 -6 -17 1 -23 -3 -22 -16 2 -20 -12 -23
-20 -4 -4 6 -4 -4 0 -23 3 -19 10 -62 15 -95 21 -131 25 -138 59 -82 26 41 26
41 -12 66 -18 11 -27 21 -20 21 6 0 12 7 12 16 0 10 6 13 19 9 14 -4 20 1 25
20 12 47 29 28 22 -25 -6 -46 -5 -50 14 -50 24 0 26 -13 5 -34 -8 -8 -15 -19
-15 -25 0 -14 -13 -14 -27 0 -7 7 -12 6 -17 -6 -3 -9 0 -18 7 -20 38 -14 144
28 150 60 2 11 2 -2 0 -30 -6 -59 -19 -78 -37 -52 -15 19 -36 23 -36 6 0 -6
-7 -9 -15 -6 -8 4 -17 2 -20 -3 -3 -4 1 -11 7 -13 7 -3 3 -6 -9 -6 -25 -1 -32
-21 -8 -21 16 0 20 -12 8 -23 -3 -4 -15 0 -24 9 -17 15 -19 15 -25 1 -3 -8 -1
-25 6 -36 6 -12 7 -21 2 -21 -15 0 -9 -24 10 -42 17 -17 18 -17 18 2 0 11 5
20 10 20 7 0 7 7 -1 21 -10 20 -9 21 10 16 14 -3 21 0 21 10 0 8 14 20 30 26
19 7 28 17 25 25 -3 10 0 12 10 8 9 -3 15 0 15 10 0 10 6 14 15 11 20 -8 31
14 12 24 -14 8 -14 13 0 49 9 22 20 40 24 40 4 0 2 -12 -6 -27 -14 -26 -12
-43 4 -43 4 0 13 12 19 26 7 14 17 22 22 19 16 -10 65 107 91 215 12 52 42
141 66 197 24 57 43 107 43 113 0 5 6 9 13 8 6 -2 11 5 11 14 -1 10 2 16 6 13
4 -2 15 4 25 15 10 11 33 24 51 30 27 9 34 17 34 37 0 14 -8 31 -17 38 -16 12
-15 18 6 91 13 44 31 98 42 121 10 23 19 46 19 51 0 21 63 94 95 109 19 9 35
20 35 24 0 4 14 10 30 14 17 4 30 11 30 16 0 5 9 9 21 9 11 0 18 4 15 9 -3 5
14 14 39 21 61 17 74 34 53 70 -15 27 -14 40 4 40 4 0 8 -6 8 -14 0 -26 19
-27 55 -3 41 28 158 140 195 186 14 17 29 31 35 31 9 0 29 26 70 88 14 22 98
102 107 102 4 0 5 8 2 18 -5 13 -4 14 4 3 9 -12 13 -12 27 2 9 10 23 17 31 17
8 0 14 7 14 15 0 8 6 16 13 16 6 1 19 3 27 4 8 1 23 3 33 4 10 0 17 9 17 21 0
33 79 76 200 108 l35 10 -41 1 c-22 1 -58 -7 -80 -18 -21 -10 -49 -22 -62 -26
-23 -7 -22 -5 7 35 16 23 32 47 34 53 3 8 12 5 27 -8 l23 -20 -8 24 c-5 16 -4
21 4 17 7 -5 8 -1 4 9 -5 14 -8 14 -15 3 -7 -10 -11 -10 -15 -1 -3 10 -8 10
-19 -1 -8 -8 -14 -18 -14 -22 0 -4 -12 -22 -26 -41 -14 -19 -27 -42 -28 -51
-3 -17 -9 -21 -71 -49 -21 -9 -47 -25 -57 -35 -10 -10 -26 -18 -35 -17 -11 0
-13 3 -5 6 6 2 9 9 6 15 -3 5 2 15 12 22 11 8 15 20 11 30 -4 10 -3 15 3 11 6
-4 10 9 10 31 0 21 -3 34 -7 31 -3 -4 -14 0 -23 8 -15 14 -18 13 -28 -11 -7
-14 -17 -45 -22 -70 -15 -68 -43 -124 -59 -121 -8 1 -24 -12 -35 -30 -12 -18
-25 -33 -31 -33 -16 -1 -65 -78 -65 -101 0 -15 -5 -19 -15 -15 -9 3 -24 -2
-34 -12 -85 -80 -120 -105 -214 -151 -59 -29 -107 -57 -107 -62 0 -5 -6 -9
-13 -9 -16 0 -67 -51 -67 -67 0 -6 -9 -9 -19 -6 -26 7 -173 -139 -192 -190 -7
-20 -16 -37 -20 -37 -4 0 -9 -8 -12 -17 -3 -10 -17 -49 -31 -87 -14 -38 -23
-73 -20 -78 3 -4 0 -8 -5 -8 -6 0 -10 -3 -9 -7 3 -13 -25 -83 -34 -83 -4 0 -8
-7 -8 -15 0 -8 -4 -15 -8 -15 -4 0 -16 -22 -27 -50 -21 -55 -29 -60 -45 -31
-9 18 -8 68 5 212 4 38 1 67 -11 94 -10 25 -14 59 -12 97 2 32 0 58 -4 58 -5
0 -8 22 -8 49 0 43 -4 52 -29 70 -31 23 -80 28 -98 10 -7 -7 -12 -4 -16 10 -4
17 -1 19 22 15 22 -5 29 0 45 30 24 45 13 61 -11 17 -22 -39 -32 -39 -72 -1
-36 35 -38 57 -12 108 11 20 35 74 55 120 98 225 109 244 146 260 37 16 43 18
105 20 30 2 36 5 25 12 -12 8 -5 19 40 61 114 108 167 124 310 95 87 -18 116
-17 53 2 -116 33 -182 35 -256 6 -13 -5 -17 0 -18 17 -1 23 -1 22 -11 -4 -13
-35 -109 -126 -156 -149 l-37 -17 -3 26 c-2 14 8 51 22 83 14 32 26 65 26 74
0 10 4 15 9 11 6 -3 13 1 18 8 4 7 16 17 26 20 13 5 16 13 12 27 -3 11 -2 20
3 20 9 0 43 63 58 105 6 17 8 15 16 -13 7 -26 13 -32 28 -27 13 4 22 -1 30
-15 11 -20 -3 -30 -15 -10 -9 14 -25 3 -25 -17 0 -12 3 -13 13 -4 10 7 17 7
24 0 15 -15 32 -3 26 19 -3 14 1 19 18 18 16 -1 24 5 26 19 1 11 0 14 -3 8 -6
-15 -54 -18 -54 -4 0 4 -13 7 -30 5 -32 -4 -37 4 -17 25 10 11 9 12 -2 6 -9
-5 -12 -3 -9 6 3 8 9 14 14 14 5 0 14 3 19 7 6 3 23 6 38 6 16 0 33 4 38 9 6
6 -2 8 -21 7 -26 -2 -30 1 -30 24 0 21 -2 24 -10 12 -11 -16 -11 -15 -14 50
-1 35 0 36 22 13 16 -16 17 -15 20 15 2 23 8 32 19 30 9 -2 18 3 20 10 3 6 -1
12 -7 12 -7 0 -9 8 -5 20 4 11 2 20 -4 20 -6 0 -11 5 -11 11 0 5 4 8 9 5 5 -4
11 0 14 6 3 11 9 11 26 0 24 -14 26 -10 9 18 -10 16 -9 24 8 47 33 45 36 53
22 53 -7 0 -20 -15 -29 -32 -21 -43 -44 -51 -35 -12 6 27 5 28 -8 10 -20 -25
-36 -12 -34 29 2 49 -9 55 -18 10 -3 -20 -12 -39 -18 -41 -6 -2 -12 -16 -12
-30 -1 -13 -5 -41 -9 -60 -6 -35 -7 -35 -26 -18 -12 11 -17 24 -13 37 4 13 2
17 -5 13 -6 -4 -11 -1 -11 7 0 8 -7 18 -16 21 -26 10 -28 7 -9 -14 10 -11 16
-23 13 -26 -3 -3 -15 7 -26 21 -11 14 -22 25 -24 23 -6 -6 -78 58 -78 70 0 6
-7 12 -15 12 -8 0 -23 13 -34 30 -10 16 -21 27 -24 23 -4 -3 -7 1 -7 10 0 10
-5 17 -10 17 -21 0 -48 36 -66 87 -17 50 -13 84 6 53 6 -8 10 -10 10 -5 0 6 7
1 15 -9 18 -24 20 -63 3 -68 -6 -2 -8 -10 -4 -16 10 -17 36 10 36 38 0 12 5
31 12 43 10 20 10 21 -5 9 -14 -12 -19 -11 -38 7 -13 12 -33 21 -45 21 -12 0
-25 7 -28 16 -3 8 -2 12 4 9 6 -3 7 1 4 10 -5 11 0 18 15 22 14 4 20 11 17 20
-3 8 -6 19 -6 24 0 5 -4 9 -9 9 -5 0 -7 -10 -4 -22 4 -21 3 -21 -14 4 -19 27
-19 27 -32 6z m474 -418 c4 -11 11 -18 16 -15 5 4 9 -3 9 -14 0 -12 -5 -20
-12 -18 -12 2 -38 42 -38 58 0 17 19 9 25 -11z m-7 -66 c7 -32 7 -54 0 -70
-14 -31 -22 -30 -34 3 -9 28 4 113 17 113 4 0 12 -21 17 -46z m-44 -156 c4
-17 2 -28 -4 -28 -5 0 -11 6 -11 13 -1 6 -3 22 -4 35 -3 30 10 15 19 -20z
m-245 -20 c1 27 21 30 21 2 0 -11 5 -20 10 -20 6 0 10 -7 10 -15 0 -8 -9 -15
-20 -15 -11 0 -20 5 -20 10 0 6 -7 10 -15 10 -16 0 -20 27 -8 57 6 14 9 11 14
-17 4 -22 7 -26 8 -12z m80 19 c8 -10 7 -14 -4 -14 -8 0 -15 6 -15 14 0 7 2
13 4 13 2 0 9 -6 15 -13z m-89 -66 c0 -6 -4 -13 -10 -16 -5 -3 -10 1 -10 9 0
9 5 16 10 16 6 0 10 -4 10 -9z m140 -191 c0 -5 -5 -10 -11 -10 -5 0 -7 5 -4
10 3 6 8 10 11 10 2 0 4 -4 4 -10z m-120 -224 c0 -15 -18 -31 -26 -23 -7 7 7
37 17 37 5 0 9 -6 9 -14z m1180 -20 c0 -2 -7 -7 -16 -10 -8 -3 -12 -2 -9 4 6
10 25 14 25 6z m-1365 -153 c-4 -10 -19 -49 -32 -88 -14 -38 -34 -79 -44 -91
-10 -11 -19 -27 -19 -35 0 -8 -5 -20 -12 -27 -9 -9 -16 -3 -30 26 -10 20 -26
49 -36 64 -17 27 -17 28 18 60 39 36 140 107 154 107 4 1 5 -7 1 -16z m-181
-237 c14 -29 26 -67 28 -82 2 -28 -21 -100 -49 -154 -7 -14 -13 -30 -13 -36 0
-15 -19 -30 -47 -38 -17 -6 -23 -3 -23 8 0 9 4 16 9 16 5 0 14 33 20 73 6 39
16 92 22 117 6 25 11 69 10 98 -1 28 2 52 8 52 5 0 21 -24 35 -54z m66 -36 c0
-5 -2 -10 -4 -10 -3 0 -8 5 -11 10 -3 6 -1 10 4 10 6 0 11 -4 11 -10z m830
-105 c-7 -8 -18 -15 -24 -15 -6 0 -2 7 8 15 25 19 32 19 16 0z m20 -15 c0 -5
-5 -10 -11 -10 -5 0 -7 5 -4 10 3 6 8 10 11 10 2 0 4 -4 4 -10z m-826 -26 c9
-3 16 -9 16 -13 0 -4 18 -27 40 -51 22 -24 40 -49 40 -56 0 -7 5 -14 10 -16
16 -5 21 -63 28 -338 4 -140 10 -260 14 -266 11 -17 -20 -114 -38 -121 -11 -4
-14 -13 -9 -30 3 -14 1 -31 -6 -39 -6 -8 -9 -25 -7 -39 3 -14 1 -28 -3 -31 -5
-3 -9 0 -9 5 0 6 -4 11 -10 11 -6 0 -5 -9 1 -24 14 -30 3 -88 -12 -65 -5 7 -9
25 -9 39 -1 22 -2 23 -13 9 -8 -11 -19 -14 -33 -8 -16 5 -24 22 -33 71 -7 34
-19 88 -28 118 -8 30 -28 106 -44 169 -17 63 -33 119 -36 124 -3 6 -6 89 -5
185 l1 174 34 35 c19 19 48 63 63 98 16 36 30 65 31 65 1 0 8 -3 17 -6z m783
-20 c-3 -3 -12 -4 -19 -1 -8 3 -5 6 6 6 11 1 17 -2 13 -5z m-969 -29 c0 -14
-4 -28 -9 -31 -5 -3 -9 9 -9 25 0 17 4 31 9 31 5 0 9 -11 9 -25z m-23 -215
c-3 -5 -14 -10 -23 -9 -14 0 -13 2 3 9 27 11 27 11 20 0z m12 -212 c-3 -8 -6
-5 -6 6 -1 11 2 17 5 13 3 -3 4 -12 1 -19z m-97 -48 c0 -5 -2 -10 -4 -10 -3 0
-8 5 -11 10 -3 6 -1 10 4 10 6 0 11 -4 11 -10z m529 -151 c1 -30 -29 -63 -37
-41 -3 10 -8 8 -17 -5 -12 -16 -12 -13 -6 17 4 20 13 34 20 32 8 -1 11 6 10
20 -2 13 1 30 6 38 7 12 10 10 16 -10 4 -14 7 -37 8 -51z m-453 -46 c-11 -11
-26 10 -26 35 l0 27 15 -29 c9 -16 13 -31 11 -33z m1 -35 c-3 -8 -6 -5 -6 6
-1 11 2 17 5 13 3 -3 4 -12 1 -19z m2 -83 c0 -5 -4 -3 -9 5 -5 8 -9 22 -9 30
0 16 17 -16 18 -35z m88 -32 c2 -6 -10 -16 -28 -22 -39 -13 -39 -13 -39 -1 0
6 10 11 23 11 16 1 18 2 5 6 -18 5 -23 15 -12 26 8 8 47 -7 51 -20z m283 -83
c0 -5 -4 -10 -10 -10 -5 0 -10 5 -10 10 0 6 5 10 10 10 6 0 10 -4 10 -10z
m-283 -92 c-3 -8 -6 -5 -6 6 -1 11 2 17 5 13 3 -3 4 -12 1 -19z m-40 -20 c-3
-8 -6 -5 -6 6 -1 11 2 17 5 13 3 -3 4 -12 1 -19z m283 -3 c-14 -17 -30 -20
-30 -6 0 5 8 12 18 14 9 3 19 5 21 6 2 0 -2 -6 -9 -14z m47 -57 c-3 -8 -6 -5
-6 6 -1 11 2 17 5 13 3 -3 4 -12 1 -19z m-40 -30 c-3 -8 -6 -5 -6 6 -1 11 2
17 5 13 3 -3 4 -12 1 -19z m-87 -23 c0 -8 -7 -15 -16 -15 -14 0 -14 3 -4 15 7
8 14 15 16 15 2 0 4 -7 4 -15z m-37 -116 c-6 -6 -17 -8 -24 -3 -9 5 -8 9 7 14
23 9 31 3 17 -11z"/>
<path d="M4375 3924 c-16 -8 -30 -16 -31 -17 -1 -1 4 -11 13 -22 15 -20 15
-20 8 3 -3 12 -2 22 2 22 10 0 52 29 43 30 -3 0 -18 -7 -35 -16z"/>
<path d="M4500 3930 c-9 -6 -10 -10 -3 -10 6 0 15 5 18 10 8 12 4 12 -15 0z"/>
<path d="M2601 3900 c-13 -11 -21 -20 -18 -20 14 0 57 24 57 32 0 13 -13 9
-39 -12z"/>
<path d="M3961 3913 c-1 -6 -4 -20 -7 -30 -5 -17 -5 -17 6 0 6 10 9 23 6 30
-3 9 -5 9 -5 0z"/>
<path d="M2555 3890 c3 -5 -2 -10 -12 -10 -15 0 -16 -2 -3 -10 23 -15 30 -12
30 10 0 11 -5 20 -11 20 -5 0 -7 -4 -4 -10z"/>
<path d="M2843 3850 c0 -30 2 -43 4 -27 2 15 2 39 0 55 -2 15 -4 2 -4 -28z"/>
<path d="M4326 3880 c3 -14 10 -29 15 -34 14 -16 10 6 -7 34 l-15 25 7 -25z"/>
<path d="M4461 3877 c-13 -21 -12 -21 5 -5 10 10 16 20 13 22 -3 3 -11 -5 -18
-17z"/>
<path d="M3662 3878 c-9 -9 -2 -17 29 -36 45 -26 66 -24 25 3 -14 10 -26 24
-26 31 0 17 -12 18 -28 2z"/>
<path d="M4285 3880 c-3 -5 -2 -10 4 -10 5 0 13 5 16 10 3 6 2 10 -4 10 -5 0
-13 -4 -16 -10z"/>
<path d="M4487 3860 c-36 -31 -53 -39 -41 -17 4 6 -2 3 -14 -7 -25 -21 -31
-36 -7 -16 8 7 15 9 15 4 0 -15 -16 -35 -26 -33 -23 4 -35 -5 -71 -53 -54 -73
-82 -120 -83 -140 0 -10 -9 -22 -20 -28 -11 -6 -20 -19 -20 -29 0 -10 -16 -31
-35 -45 l-34 -26 -17 25 c-9 14 -14 28 -10 32 3 3 6 1 6 -5 0 -7 8 -12 17 -12
12 0 6 10 -20 34 -27 24 -37 42 -36 62 0 28 1 28 11 7 12 -25 23 -29 33 -13 3
6 2 10 -4 10 -5 0 -11 12 -13 28 -2 19 -9 27 -23 27 -11 0 -21 8 -23 18 -4 21
-22 23 -22 2 0 -8 4 -24 9 -37 5 -13 16 -58 26 -100 12 -58 20 -76 31 -71 8 3
14 0 14 -6 0 -6 -5 -11 -11 -11 -6 0 -9 -6 -6 -14 3 -8 -4 -21 -18 -30 -26
-17 -39 -21 -31 -8 2 4 -1 14 -7 23 -11 14 -13 14 -27 0 -8 -9 -13 -15 -11
-14 8 5 30 -33 31 -52 0 -12 5 -26 12 -33 7 -7 8 -12 3 -12 -5 0 -1 -6 9 -13
13 -10 19 -27 19 -56 0 -32 3 -41 14 -37 9 4 13 0 11 -11 -2 -12 5 -17 26 -17
16 -1 31 5 33 12 3 7 -1 10 -10 6 -11 -4 -13 1 -10 20 3 14 9 23 14 20 17 -10
8 11 -17 41 l-26 30 7 -32 c6 -28 4 -31 -14 -26 -12 3 -21 12 -21 20 0 8 5 11
12 7 8 -5 9 -2 5 9 -4 11 1 20 13 27 14 7 20 7 20 0 0 -5 5 -10 10 -10 6 0 5
8 -2 20 -11 17 -10 22 2 30 9 6 10 10 3 10 -7 0 -16 -7 -21 -16 -5 -9 -15 -14
-21 -10 -6 4 -9 12 -6 17 4 5 1 9 -4 9 -6 0 -11 7 -11 16 0 9 5 12 12 8 8 -5
9 -2 5 10 -4 10 -1 19 8 22 8 4 15 12 15 18 0 7 18 21 40 32 23 11 45 31 53
47 6 15 18 27 24 27 7 0 13 7 13 15 0 8 7 15 16 15 14 0 14 3 4 15 -11 13 -9
22 6 50 10 19 22 35 26 35 13 0 9 -18 -8 -35 -9 -8 -13 -22 -10 -30 6 -17 32
-20 41 -5 3 6 -1 7 -9 4 -20 -8 -20 5 -1 30 8 10 12 30 9 45 -2 15 2 35 11 46
14 17 17 18 26 5 8 -12 9 -11 4 6 -3 13 1 26 11 35 15 12 16 12 10 -8 -5 -14
10 -5 46 31 29 28 52 53 51 55 -2 2 5 10 15 17 9 7 14 14 10 14 -4 0 -23 -13
-41 -30z m-387 -516 c0 -8 -4 -12 -10 -9 -5 3 -10 10 -10 16 0 5 5 9 10 9 6 0
10 -7 10 -16z m45 -113 c3 -5 1 -12 -5 -16 -5 -3 -10 1 -10 9 0 18 6 21 15 7z"/>
<path d="M5151 3874 c-53 -37 -118 -99 -271 -258 -35 -37 -70 -64 -77 -62 -7
3 -13 -1 -13 -8 0 -12 -63 -76 -74 -76 -3 0 -21 -15 -39 -32 -131 -125 -167
-162 -172 -178 -3 -10 -13 -17 -23 -15 -9 1 -11 0 -4 -2 8 -3 10 -14 6 -31
l-7 -27 20 25 c11 14 23 34 27 45 6 21 146 165 146 151 0 -5 -9 -24 -21 -42
l-21 -34 22 0 c14 0 19 -4 14 -12 -5 -9 -2 -8 9 1 15 12 15 15 3 25 -13 10
-13 16 2 47 19 40 41 69 52 69 4 0 10 -14 14 -31 9 -48 44 -98 64 -94 9 2 21
4 25 4 5 1 6 5 3 10 -3 5 -15 7 -25 4 -15 -4 -24 5 -40 36 -21 40 -28 101 -13
101 9 0 170 155 242 234 25 27 60 60 79 75 39 29 106 91 100 91 -3 0 -15 -7
-28 -16z"/>
<path d="M2646 3853 c9 -38 14 -42 14 -10 0 14 -5 29 -10 32 -7 4 -8 -3 -4
-22z"/>
<path d="M3147 3856 c-5 -14 32 -48 43 -41 6 4 10 12 10 18 0 8 -3 8 -9 -2 -7
-11 -10 -11 -17 0 -4 7 -3 14 4 17 7 2 12 8 12 12 0 12 -39 8 -43 -4z"/>
<path d="M3205 3860 c-3 -5 -1 -10 4 -10 6 0 11 5 11 10 0 6 -2 10 -4 10 -3 0
-8 -4 -11 -10z"/>
<path d="M2586 3847 c3 -10 9 -15 12 -12 3 3 0 11 -7 18 -10 9 -11 8 -5 -6z"/>
<path d="M3935 3849 c-4 -6 -5 -12 -2 -15 2 -3 7 2 10 11 7 17 1 20 -8 4z"/>
<path d="M4267 3839 c6 -21 -12 -27 -20 -6 -3 9 -8 9 -17 1 -9 -9 -5 -15 18
-25 24 -10 29 -18 27 -43 -1 -17 0 -23 2 -13 5 21 23 23 23 3 0 -8 4 -17 9
-21 6 -3 7 9 4 30 -5 31 -4 35 13 28 16 -6 17 -5 4 9 -8 8 -21 13 -27 11 -8
-3 -13 3 -13 15 0 11 -6 22 -14 25 -10 4 -12 0 -9 -14z"/>
<path d="M4530 3849 c0 -5 5 -7 10 -4 6 3 10 8 10 11 0 2 -4 4 -10 4 -5 0 -10
-5 -10 -11z"/>
<path d="M2533 3835 c0 -8 7 -17 15 -20 23 -8 24 0 4 18 -15 14 -19 15 -19 2z"/>
<path d="M3330 3840 c0 -7 -7 -10 -15 -6 -21 8 -45 -3 -45 -21 0 -12 3 -13 13
-4 16 13 27 5 27 -21 0 -11 5 -16 10 -13 6 3 11 -4 11 -17 1 -19 3 -17 8 7 5
22 12 29 24 27 15 -3 17 0 8 16 -14 27 -41 48 -41 32z"/>
<path d="M3520 3840 c0 -5 5 -10 11 -10 5 0 7 5 4 10 -3 6 -8 10 -11 10 -2 0
-4 -4 -4 -10z"/>
<path d="M4190 3833 c0 -14 -14 -33 -37 -50 -48 -35 -77 -63 -64 -63 5 0 13 5
16 10 4 7 14 6 28 -1 19 -10 20 -9 9 2 -11 12 -6 20 29 50 36 31 40 38 31 55
-11 18 -11 18 -12 -3z"/>
<path d="M2884 3827 c3 -10 6 -25 6 -33 0 -8 5 -14 11 -14 12 0 2 40 -14 55
-7 7 -8 4 -3 -8z"/>
<path d="M2958 3833 c6 -2 18 -2 25 0 6 3 1 5 -13 5 -14 0 -19 -2 -12 -5z"/>
<path d="M3641 3823 c-10 -4 -8 -9 10 -20 21 -12 22 -13 3 -8 -17 4 -22 1 -20
-12 2 -25 26 -39 38 -22 5 8 11 10 14 4 2 -5 9 -17 15 -25 8 -12 12 -12 16 -2
4 10 9 8 20 -8 8 -12 12 -24 8 -28 -3 -3 -11 0 -16 8 -9 12 -10 12 -5 -3 3
-10 6 -24 6 -30 1 -13 30 21 30 34 0 4 -17 26 -39 48 -21 22 -41 47 -44 56 -7
16 -13 17 -36 8z"/>
<path d="M2968 3813 c-3 -4 12 -35 33 -68 21 -33 39 -57 39 -53 0 16 -68 129
-72 121z"/>
<path d="M3870 3788 c0 -9 -4 -20 -10 -23 -5 -3 -10 -11 -10 -18 0 -6 8 0 17
13 9 14 23 30 31 35 11 9 9 11 -7 11 -13 0 -21 -7 -21 -18z"/>
<path d="M4505 3799 c-4 -6 -5 -12 -2 -15 2 -3 7 2 10 11 7 17 1 20 -8 4z"/>
<path d="M3236 3782 c-9 -27 0 -43 19 -35 19 7 19 14 1 38 -13 18 -14 18 -20
-3z"/>
<path d="M3820 3761 c0 -22 4 -42 9 -45 4 -3 6 11 4 31 -2 23 1 39 9 44 10 7
8 9 -4 9 -14 0 -18 -8 -18 -39z"/>
<path d="M2848 3765 c2 -14 -1 -32 -8 -40 -7 -9 -10 -18 -6 -22 3 -3 6 -1 6 5
0 7 4 12 10 12 5 0 7 -8 3 -17 -3 -10 -3 -15 1 -12 11 10 16 50 10 76 -8 31
-22 30 -16 -2z"/>
<path d="M2870 3774 c0 -8 5 -12 10 -9 6 4 8 11 5 16 -9 14 -15 11 -15 -7z"/>
<path d="M3580 3775 c-7 -9 -10 -18 -7 -21 3 -3 10 4 17 15 13 25 8 27 -10 6z"/>
<path d="M3764 3757 c0 -13 6 -24 13 -24 9 0 9 6 1 21 -15 30 -16 30 -14 3z"/>
<path d="M2610 3765 c0 -2 10 -10 23 -16 20 -11 21 -11 8 4 -13 16 -31 23 -31
12z"/>
<path d="M2905 3746 c0 -13 3 -22 6 -20 3 2 12 -8 19 -21 7 -13 19 -26 26 -29
13 -5 -14 56 -28 62 -5 2 -8 10 -8 18 0 8 -3 14 -7 14 -5 0 -8 -11 -8 -24z"/>
<path d="M3515 3760 c3 -5 8 -10 11 -10 2 0 4 5 4 10 0 6 -5 10 -11 10 -5 0
-7 -4 -4 -10z"/>
<path d="M2690 3745 c0 -12 -5 -15 -16 -11 -14 5 -15 4 -4 -9 7 -8 10 -25 6
-39 -5 -20 -1 -25 20 -30 28 -8 47 0 38 16 -4 6 0 14 7 19 10 6 10 9 2 9 -7 0
-10 7 -7 18 4 11 -1 9 -15 -8 l-21 -25 5 32 c3 17 1 35 -5 38 -5 3 -10 -1 -10
-10z"/>
<path d="M3121 3744 c0 -11 3 -14 6 -6 3 7 2 16 -1 19 -3 4 -6 -2 -5 -13z"/>
<path d="M3598 3735 c-3 -14 -1 -25 3 -25 5 0 9 11 9 25 0 14 -2 25 -4 25 -2
0 -6 -11 -8 -25z"/>
<path d="M3522 3724 c-7 -8 -10 -18 -7 -23 3 -5 1 -12 -5 -16 -5 -3 -10 -11
-10 -18 0 -20 27 16 34 46 7 31 6 32 -12 11z"/>
<path d="M3276 3708 c7 -23 21 -38 37 -38 4 0 -2 14 -15 30 -26 36 -32 38 -22
8z"/>
<path d="M3347 3709 c4 -13 8 -18 11 -10 2 7 -1 18 -6 23 -8 8 -9 4 -5 -13z"/>
<path d="M3888 3714 c-32 -39 -49 -54 -60 -54 -9 0 -9 3 0 12 15 15 16 28 2
28 -5 0 -10 -6 -10 -14 0 -22 -19 -30 -35 -16 -12 10 -15 10 -15 0 0 -9 -9
-11 -30 -6 -17 3 -30 1 -30 -4 0 -6 9 -10 20 -10 25 0 38 -29 19 -41 -11 -7
-10 -9 5 -9 14 0 17 6 14 25 -4 18 -1 25 10 25 32 0 57 -70 30 -86 -8 -5 -9
-2 -5 9 3 9 3 26 -1 38 -8 21 -9 21 -25 -5 -11 -16 -13 -26 -6 -26 8 0 9 -12
4 -37 -4 -21 -7 -52 -6 -70 l1 -31 -58 0 c-31 0 -67 4 -79 9 -25 9 -28 3 -13
-21 7 -11 2 -17 -18 -27 -27 -12 -27 -12 8 -8 19 2 37 4 39 4 2 1 -2 8 -9 16
-16 20 -5 32 14 16 8 -7 21 -9 27 -5 8 5 11 2 7 -7 -8 -20 33 -20 48 0 6 8 18
11 28 8 12 -5 16 0 16 19 0 14 4 22 10 19 6 -3 7 1 4 10 -7 17 14 48 27 39 5
-3 9 -17 10 -32 0 -15 3 -21 6 -14 8 20 20 14 25 -13 3 -13 -1 -33 -8 -44 -12
-16 -12 -23 0 -46 8 -15 17 -22 21 -16 3 6 3 16 0 22 -5 7 12 10 54 8 33 -1
64 1 68 4 3 4 -6 7 -21 7 -20 0 -27 4 -23 14 5 13 1 13 -28 0 -37 -15 -39 -14
-50 34 -6 29 -4 34 14 39 12 3 21 11 21 18 0 8 3 21 7 31 4 12 3 15 -5 10 -7
-4 -12 -15 -12 -26 0 -10 -7 -20 -15 -24 -11 -4 -15 2 -15 26 0 17 -6 39 -14
47 -23 28 -28 79 -8 93 19 14 67 78 58 78 -3 0 -11 -7 -18 -16z"/>
<path d="M2756 3707 c3 -10 9 -15 12 -12 3 3 0 11 -7 18 -10 9 -11 8 -5 -6z"/>
<path d="M4257 3706 c-3 -8 -2 -18 4 -21 5 -4 7 -11 3 -16 -3 -5 -9 -7 -14 -4
-5 3 -10 -7 -12 -22 l-3 -28 -19 38 c-22 45 -39 50 -35 10 0 -4 -8 -11 -18
-15 -13 -5 -11 -7 11 -5 23 2 32 -4 46 -32 l19 -33 6 36 c4 20 11 36 15 36 14
0 22 38 12 56 -8 15 -10 15 -15 0z"/>
<path d="M2110 3686 c0 -19 4 -23 20 -19 12 3 20 0 20 -6 0 -7 4 -10 10 -6 13
8 1 35 -16 35 -8 0 -14 5 -14 10 0 6 -4 10 -10 10 -5 0 -10 -11 -10 -24z"/>
<path d="M3549 3703 c-4 -30 -5 -85 -2 -70 6 22 23 12 23 -12 0 -10 -9 -21
-20 -24 -11 -3 -20 -13 -20 -23 0 -16 1 -16 14 2 15 19 15 19 31 -1 13 -16 16
-17 11 -3 -3 10 -1 20 4 23 6 4 9 18 9 33 -1 20 -3 22 -6 8 -4 -17 -8 -14 -21
15 -8 19 -14 40 -13 47 1 6 -1 12 -4 12 -3 0 -5 -3 -6 -7z"/>
<path d="M3665 3688 c3 -20 -21 -32 -29 -15 -2 7 -5 2 -5 -9 -1 -18 4 -21 33
-20 24 1 32 5 28 15 -3 7 1 17 8 21 7 4 9 13 6 19 -11 16 -26 13 -20 -4 4 -8
1 -15 -4 -15 -6 0 -12 6 -15 13 -2 6 -3 4 -2 -5z"/>
<path d="M2786 3684 c-9 -8 -13 -21 -9 -27 5 -8 9 -6 11 6 3 14 10 18 28 14
20 -3 22 -2 13 9 -15 18 -24 18 -43 -2z"/>
<path d="M3596 3691 c-4 -5 -2 -12 3 -15 5 -4 12 -2 15 3 4 5 2 12 -3 15 -5 4
-12 2 -15 -3z"/>
<path d="M3950 3695 c0 -5 5 -17 10 -25 5 -8 10 -10 10 -5 0 6 -5 17 -10 25
-5 8 -10 11 -10 5z"/>
<path d="M3061 3673 c7 -10 15 -20 16 -22 2 -2 3 3 3 11 0 9 -7 19 -16 22 -15
6 -15 4 -3 -11z"/>
<path d="M3370 3660 c14 -11 30 -20 35 -20 6 0 -1 9 -15 20 -14 11 -29 20 -35
20 -5 0 1 -9 15 -20z"/>
<path d="M3995 3643 c-10 -24 -15 -56 -12 -88 5 -58 -6 -85 -33 -85 -11 0 -20
-4 -20 -9 0 -5 9 -7 20 -4 13 4 26 -1 35 -13 15 -18 15 -18 8 1 -6 18 -5 18
10 6 14 -11 18 -11 22 1 7 17 2 48 -9 66 -15 25 -11 118 7 136 21 21 21 26 2
26 -8 0 -22 -17 -30 -37z m19 -169 c3 -8 2 -12 -4 -9 -6 3 -10 10 -10 16 0 14
7 11 14 -7z"/>
<path d="M3300 3628 c0 -32 23 -79 33 -68 3 3 3 18 0 35 -6 26 -7 27 -15 10
-6 -15 -7 -12 -5 13 2 18 0 35 -5 38 -4 3 -8 -10 -8 -28z"/>
<path d="M4510 3650 l-55 -7 50 -1 c28 0 59 3 70 8 23 10 14 10 -65 0z"/>
<path d="M2050 3628 c0 -12 1 -19 3 -17 1 2 9 12 16 22 12 14 11 17 -3 17 -10
0 -16 -8 -16 -22z"/>
<path d="M2410 3640 c20 -13 33 -13 25 0 -3 6 -14 10 -23 10 -15 0 -15 -2 -2
-10z"/>
<path d="M2483 3570 c0 -41 2 -58 4 -37 2 20 2 54 0 75 -2 20 -4 3 -4 -38z"/>
<path d="M2605 3631 c6 -11 -13 -25 -34 -26 -23 0 -25 -25 -2 -25 12 0 21 5
21 10 0 6 11 10 24 10 14 0 28 5 31 10 3 6 -1 10 -9 10 -9 0 -16 5 -16 10 0 6
-5 10 -11 10 -5 0 -8 -4 -4 -9z"/>
<path d="M2738 3633 c7 -3 16 -2 19 1 4 3 -2 6 -13 5 -11 0 -14 -3 -6 -6z"/>
<path d="M3117 3620 c3 -11 7 -20 9 -20 2 0 4 9 4 20 0 11 -4 20 -9 20 -5 0
-7 -9 -4 -20z"/>
<path d="M3370 3631 c0 -5 5 -13 10 -16 6 -3 10 -2 10 4 0 5 -4 13 -10 16 -5
3 -10 2 -10 -4z"/>
<path d="M4702 3594 c-3 -72 7 -117 22 -101 30 33 50 61 35 49 -9 -6 -19 -9
-22 -5 -4 3 -7 1 -7 -5 0 -7 -4 -12 -10 -12 -5 0 -11 28 -13 63 -3 60 -3 60
-5 11z"/>
<path d="M2120 3609 c0 -8 9 -25 20 -37 11 -12 20 -24 20 -27 0 -29 195 -195
229 -195 8 0 -14 18 -47 40 -41 26 -62 46 -62 59 0 11 -5 23 -12 27 -8 5 -9 2
-5 -10 10 -26 -25 -4 -54 35 -13 17 -33 43 -45 57 -11 15 -26 36 -32 47 -9 15
-11 16 -12 4z"/>
<path d="M2810 3606 c0 -9 7 -16 16 -16 9 0 14 5 12 12 -6 18 -28 21 -28 4z"/>
<path d="M4020 3596 c0 -14 4 -27 8 -30 5 -3 6 8 4 25 -5 35 -12 38 -12 5z"/>
<path d="M4162 3598 c2 -6 10 -13 16 -14 7 -1 8 0 2 3 -5 2 -8 9 -4 14 3 5 0
9 -6 9 -7 0 -10 -5 -8 -12z"/>
<path d="M4422 3596 c7 -8 15 -12 17 -11 5 6 -10 25 -20 25 -5 0 -4 -6 3 -14z"/>
<path d="M3636 3583 c-6 -14 -5 -15 5 -6 7 7 10 15 7 18 -3 3 -9 -2 -12 -12z"/>
<path d="M4200 3591 c0 -6 4 -13 10 -16 6 -3 7 1 4 9 -7 18 -14 21 -14 7z"/>
<path d="M4385 3590 c3 -5 8 -10 11 -10 2 0 4 5 4 10 0 6 -5 10 -11 10 -5 0
-7 -4 -4 -10z"/>
<path d="M2736 3574 c-4 -12 -2 -15 9 -10 8 3 15 1 15 -4 0 -6 7 -10 16 -10
11 0 14 5 10 16 -3 9 -6 18 -6 20 0 12 -39 2 -44 -12z"/>
<path d="M2850 3579 c0 -7 8 -18 18 -26 16 -13 15 -14 -5 -10 -32 7 -37 -8 -8
-23 14 -7 25 -20 25 -29 0 -14 2 -14 9 -1 6 8 7 19 3 25 -4 5 -5 18 -4 28 2 9
-2 17 -7 17 -6 0 -11 7 -11 15 0 8 -4 15 -10 15 -5 0 -10 -5 -10 -11z"/>
<path d="M3375 3580 c3 -5 8 -10 11 -10 2 0 4 5 4 10 0 6 -5 10 -11 10 -5 0
-7 -4 -4 -10z"/>
<path d="M3705 3580 c3 -5 8 -10 11 -10 2 0 4 5 4 10 0 6 -5 10 -11 10 -5 0
-7 -4 -4 -10z"/>
<path d="M4326 3574 c-19 -19 -21 -31 -3 -15 8 6 17 8 20 4 4 -3 7 1 7 10 0
21 -4 21 -24 1z"/>
<path d="M2590 3576 c0 -7 30 -61 31 -56 9 38 6 56 -12 57 -10 1 -19 0 -19 -1z"/>
<path d="M2646 3562 c-4 -13 -5 -26 -2 -29 10 -11 18 4 14 29 l-4 23 -8 -23z"/>
<path d="M3885 3570 c3 -5 8 -10 11 -10 2 0 4 5 4 10 0 6 -5 10 -11 10 -5 0
-7 -4 -4 -10z"/>
<path d="M1910 3540 c9 -32 37 -66 46 -57 3 3 1 14 -5 25 -18 33 -13 37 14 12
14 -13 28 -20 32 -17 9 10 -37 47 -59 47 -10 0 -18 5 -18 10 0 6 -4 10 -9 10
-6 0 -6 -12 -1 -30z"/>
<path d="M2545 3560 c-4 -6 0 -10 9 -10 8 0 17 -6 19 -12 4 -8 6 -7 6 3 1 19
-25 33 -34 19z"/>
<path d="M2670 3566 c0 -2 7 -7 16 -10 8 -3 12 -2 9 4 -6 10 -25 14 -25 6z"/>
<path d="M2980 3560 c0 -5 -8 -6 -17 -3 -16 6 -16 5 -5 -10 8 -9 11 -21 7 -27
-3 -5 -2 -10 3 -10 5 0 12 -8 15 -19 3 -13 12 -18 32 -16 36 4 42 13 20 29
-10 7 -16 20 -12 28 6 17 -10 38 -30 38 -7 0 -13 -4 -13 -10z m30 -40 c0 -5
-4 -10 -10 -10 -5 0 -10 5 -10 10 0 6 5 10 10 10 6 0 10 -4 10 -10z"/>
<path d="M3673 3528 l-1 -43 8 35 c5 19 5 39 1 43 -4 4 -8 -12 -8 -35z"/>
<path d="M4407 3554 c3 -8 10 -11 16 -7 6 4 8 0 4 -10 -3 -10 -2 -17 2 -17 9
0 21 24 21 40 0 4 -11 8 -24 8 -17 0 -23 -5 -19 -14z"/>
<path d="M5035 3560 c-3 -5 -2 -10 4 -10 5 0 13 5 16 10 3 6 2 10 -4 10 -5 0
-13 -4 -16 -10z"/>
<path d="M3710 3549 c0 -5 5 -7 10 -4 6 3 10 8 10 11 0 2 -4 4 -10 4 -5 0 -10
-5 -10 -11z"/>
<path d="M2781 3521 c-11 -15 -17 -31 -14 -35 4 -4 -1 -4 -12 0 -15 6 -17 4
-12 -10 4 -10 7 -24 7 -32 0 -8 6 -11 16 -7 13 5 13 7 2 14 -11 7 -10 11 1 18
8 5 16 17 17 26 1 9 10 25 20 36 9 10 12 19 6 19 -6 0 -20 -13 -31 -29z"/>
<path d="M3091 3535 c0 -11 4 -29 9 -40 l9 -20 0 20 c0 11 -4 29 -9 40 l-9 20
0 -20z"/>
<path d="M3140 3530 c0 -19 3 -21 12 -12 9 9 9 15 0 24 -9 9 -12 7 -12 -12z"/>
<path d="M4031 3534 c0 -11 3 -14 6 -6 3 7 2 16 -1 19 -3 4 -6 -2 -5 -13z"/>
<path d="M2390 3534 c0 -3 11 -22 25 -42 30 -45 33 -37 4 12 -20 34 -29 43
-29 30z"/>
<path d="M3328 3533 c7 -3 16 -2 19 1 4 3 -2 6 -13 5 -11 0 -14 -3 -6 -6z"/>
<path d="M4265 3529 c-4 -6 -5 -12 -2 -15 2 -3 7 2 10 11 7 17 1 20 -8 4z"/>
<path d="M5015 3530 c-3 -5 -1 -10 4 -10 6 0 11 5 11 10 0 6 -2 10 -4 10 -3 0
-8 -4 -11 -10z"/>
<path d="M2706 3523 c-11 -11 -6 -23 9 -23 8 0 15 4 15 9 0 13 -16 22 -24 14z"/>
<path d="M3431 3514 c0 -11 3 -14 6 -6 3 7 2 16 -1 19 -3 4 -6 -2 -5 -13z"/>
<path d="M2630 3506 c0 -8 5 -18 10 -21 6 -3 10 3 10 14 0 12 -4 21 -10 21 -5
0 -10 -6 -10 -14z"/>
<path d="M1885 3500 c3 -5 11 -10 16 -10 6 0 7 5 4 10 -3 6 -11 10 -16 10 -6
0 -7 -4 -4 -10z"/>
<path d="M2580 3504 c0 -5 7 -19 15 -30 8 -10 15 -14 15 -8 0 5 -7 19 -15 30
-8 10 -15 14 -15 8z"/>
<path d="M3620 3501 c0 -5 7 -11 14 -14 10 -4 13 -1 9 9 -6 15 -23 19 -23 5z"/>
<path d="M4395 3500 c3 -5 11 -10 16 -10 6 0 7 5 4 10 -3 6 -11 10 -16 10 -6
0 -7 -4 -4 -10z"/>
<path d="M2801 3487 c0 -10 7 -21 17 -24 9 -4 19 -10 22 -14 3 -4 10 2 16 15
8 18 7 22 -8 22 -10 0 -18 -4 -18 -8 0 -15 -19 -8 -23 10 -4 16 -5 16 -6 -1z"/>
<path d="M2936 3485 c4 -8 13 -15 21 -15 13 0 13 3 3 15 -7 8 -16 15 -21 15
-5 0 -6 -7 -3 -15z"/>
<path d="M3126 3478 c3 -5 10 -6 15 -3 13 9 11 12 -6 12 -8 0 -12 -4 -9 -9z"/>
<path d="M2491 3433 c10 -51 5 -69 -9 -32 -5 13 -12 31 -15 39 -3 8 -4 -4 -2
-28 1 -23 -2 -45 -7 -48 -10 -7 9 -34 24 -34 6 0 5 7 -2 15 -7 9 -10 18 -6 22
8 8 12 3 20 -24 6 -18 3 -23 -11 -23 -10 0 -27 7 -37 15 -11 8 -24 15 -29 15
-6 0 7 -11 27 -25 21 -14 41 -23 46 -20 11 7 50 -43 50 -66 0 -10 5 -21 11
-24 23 -15 21 8 -8 72 -17 38 -34 94 -38 125 -3 32 -10 60 -14 63 -5 2 -4 -16
0 -42z"/>
<path d="M3107 3439 c3 -24 1 -39 -7 -44 -8 -5 -11 -4 -7 1 3 6 2 16 -4 24 -7
12 -9 12 -9 2 0 -18 -57 -6 -84 17 -19 16 -19 15 -3 -10 10 -14 15 -28 13 -30
-3 -3 9 -5 27 -6 56 -3 82 -10 79 -22 -1 -7 2 -10 7 -7 5 4 9 26 8 50 -1 24
-5 42 -9 40 -3 -2 -9 2 -11 8 -3 7 -3 -3 0 -23z"/>
<path d="M3670 3460 c0 -5 5 -10 10 -10 6 0 10 5 10 10 0 6 -4 10 -10 10 -5 0
-10 -4 -10 -10z"/>
<path d="M4340 3456 c0 -8 5 -18 10 -21 6 -3 10 1 10 9 0 8 -4 18 -10 21 -5 3
-10 -1 -10 -9z"/>
<path d="M5025 3460 c-3 -5 -1 -10 4 -10 6 0 11 5 11 10 0 6 -2 10 -4 10 -3 0
-8 -4 -11 -10z"/>
<path d="M1863 3453 c-7 -2 -13 -11 -13 -18 0 -7 -4 -15 -10 -17 -6 -2 -6 -8
0 -18 8 -13 10 -12 10 3 0 21 16 23 24 2 3 -8 13 -15 21 -15 10 0 13 5 9 13
-6 9 -4 9 8 -1 9 -7 21 -35 28 -62 9 -39 16 -49 37 -55 14 -3 31 -1 36 4 8 8
4 11 -11 11 -12 0 -21 5 -19 12 1 7 -4 12 -12 13 -8 0 -22 24 -33 56 -17 50
-21 56 -44 53 -19 -2 -24 1 -20 12 3 8 4 14 3 13 -1 0 -8 -3 -14 -6z"/>
<path d="M3174 3425 c0 -21 4 -31 9 -26 5 5 15 8 21 7 6 -2 8 -1 3 1 -4 3 -4
9 -1 14 6 10 -13 39 -25 39 -4 0 -7 -16 -7 -35z"/>
<path d="M3888 3453 c6 -2 18 -2 25 0 6 3 1 5 -13 5 -14 0 -19 -2 -12 -5z"/>
<path d="M4220 3445 c0 -8 -9 -15 -20 -15 -11 0 -20 5 -20 10 0 17 -14 11 -29
-11 -11 -18 -11 -23 1 -30 18 -12 24 -11 42 7 9 8 16 11 16 5 0 -6 9 -11 20
-11 11 0 20 -4 20 -8 0 -4 10 -8 23 -9 21 -2 21 -1 3 13 -11 8 -27 14 -35 14
-13 0 -14 2 -2 9 8 5 11 16 8 25 -8 20 -27 21 -27 1z m-40 -24 c0 -6 -4 -13
-10 -16 -5 -3 -10 1 -10 9 0 9 5 16 10 16 6 0 10 -4 10 -9z"/>
<path d="M4530 3450 c0 -6 8 -14 18 -17 9 -4 20 -11 24 -17 12 -18 23 4 12 22
-13 19 -54 29 -54 12z"/>
<path d="M2622 3436 c-23 -11 -25 -31 -2 -31 7 0 16 10 21 23 5 12 7 21 6 21
-1 -1 -12 -6 -25 -13z"/>
<path d="M3141 3440 c0 -8 4 -22 9 -30 12 -18 12 -2 0 25 -6 13 -9 15 -9 5z"/>
<path d="M4380 3438 c0 -4 9 -8 20 -8 11 0 20 4 20 9 0 6 -9 9 -20 8 -11 -1
-20 -5 -20 -9z"/>
<path d="M4486 3425 c-3 -8 -1 -15 4 -15 6 0 10 7 10 15 0 8 -2 15 -4 15 -2 0
-6 -7 -10 -15z"/>
<path d="M3555 3420 c3 -5 8 -10 11 -10 2 0 4 5 4 10 0 6 -5 10 -11 10 -5 0
-7 -4 -4 -10z"/>
<path d="M4980 3410 c0 -19 3 -21 12 -12 9 9 9 15 0 24 -9 9 -12 7 -12 -12z"/>
<path d="M2905 3410 c-4 -6 -2 -9 4 -8 5 2 17 -6 25 -17 12 -16 15 -17 16 -4
0 28 -32 49 -45 29z"/>
<path d="M2960 3415 c0 -5 5 -17 10 -25 5 -8 10 -10 10 -5 0 6 -5 17 -10 25
-5 8 -10 11 -10 5z"/>
<path d="M4331 3388 c-7 -11 -7 -19 -1 -23 22 -14 8 -25 -26 -19 -28 4 -34 3
-28 -8 10 -16 -24 8 -43 31 -7 8 -15 12 -17 10 -3 -3 5 -17 18 -32 15 -17 22
-35 19 -47 -3 -12 0 -20 6 -20 7 0 9 5 5 12 -4 7 -3 8 4 4 7 -4 12 -2 12 3 0
6 5 11 12 11 6 0 4 -7 -5 -18 -10 -10 -17 -23 -17 -29 0 -6 -7 -16 -15 -23
-12 -10 -17 -8 -25 11 -9 22 -10 21 -6 -8 6 -34 -2 -41 -22 -21 -9 9 -12 7
-12 -9 0 -12 -4 -25 -10 -28 -5 -3 -10 -11 -10 -16 0 -6 4 -8 9 -5 5 3 9 0 8
-7 0 -6 1 -21 2 -32 2 -19 2 -19 15 -2 12 15 14 15 19 3 4 -9 -1 -20 -11 -25
-9 -6 -12 -11 -6 -11 18 0 26 -32 12 -42 -10 -6 -10 -10 -1 -16 21 -13 34 -63
32 -124 -1 -32 1 -61 4 -65 6 -5 11 50 10 94 -1 7 3 10 8 7 13 -8 11 10 -3 24
-8 8 -8 15 2 27 10 12 10 15 -4 15 -19 0 -21 11 -4 28 16 16 31 15 25 0 -2 -7
1 -27 9 -45 7 -17 9 -34 6 -36 -4 -2 -1 -2 7 0 9 2 12 -3 9 -15 -3 -10 2 -24
10 -32 14 -13 15 -12 9 3 -4 11 -3 16 3 12 6 -3 10 -14 10 -23 0 -9 11 10 25
42 23 58 29 65 69 87 24 14 38 -5 33 -44 -2 -17 0 -24 6 -18 5 5 10 20 10 34
1 14 5 23 10 20 4 -2 7 0 7 5 0 17 84 21 96 5 10 -11 13 -11 18 2 3 10 18 15
42 15 34 0 36 -1 29 -27 -6 -27 -6 -27 14 -9 21 19 22 19 58 -10 20 -17 38
-35 40 -41 2 -6 -12 -21 -32 -33 -19 -12 -35 -28 -35 -36 0 -20 18 -17 30 5
13 26 50 37 61 20 7 -11 9 -10 9 4 0 9 5 17 10 17 6 0 10 -4 10 -10 0 -5 4
-10 9 -10 5 0 23 -13 41 -30 34 -32 53 -39 44 -16 -3 8 -14 16 -25 19 -10 3
-19 13 -19 22 0 12 6 15 19 10 11 -3 22 -1 26 5 5 8 -7 10 -39 7 -25 -2 -46 0
-46 5 0 4 5 8 10 8 6 0 10 5 10 10 0 7 -7 7 -20 0 -25 -13 -41 -5 -33 17 4 10
2 14 -4 10 -6 -4 -16 -1 -22 7 -6 7 -31 21 -55 31 -62 26 -65 48 -10 77 24 12
44 26 44 30 0 4 -15 -1 -32 -12 -18 -11 -44 -26 -58 -34 -31 -17 -115 -32
-107 -19 3 5 0 10 -8 10 -8 0 -15 -6 -15 -14 0 -15 -51 -14 -62 1 -4 6 -12 5
-21 -2 -12 -10 -16 -9 -21 5 -6 14 7 31 49 70 63 56 91 66 189 62 34 -1 71 3
81 9 15 8 5 9 -44 5 -47 -5 -62 -3 -57 5 4 7 26 12 49 12 28 0 37 3 28 9 -7 5
-10 15 -7 22 4 8 0 5 -8 -5 -12 -15 -16 -16 -16 -5 0 8 11 26 25 41 14 15 21
30 16 33 -11 6 -61 -55 -61 -73 0 -16 -17 -15 -23 1 -2 6 -8 -1 -12 -17 -7
-27 -10 -28 -53 -22 -25 3 -54 14 -64 23 -15 14 -18 14 -18 1 0 -8 -9 -23 -20
-33 -11 -10 -20 -22 -20 -27 0 -5 7 -2 16 6 21 22 54 39 54 28 0 -9 -105 -102
-115 -102 -4 0 0 11 9 25 19 28 20 35 6 35 -6 0 -18 -17 -28 -37 -9 -21 -19
-40 -22 -43 -3 -3 -5 -17 -5 -32 1 -16 -4 -28 -11 -28 -7 0 -21 -16 -33 -35
-26 -44 -37 -44 -58 -1 -23 49 -13 65 35 60 29 -3 42 0 46 11 4 12 -4 15 -44
15 -29 0 -50 -5 -50 -11 0 -5 -5 -7 -11 -4 -6 4 -8 13 -5 20 2 7 -2 16 -10 19
-8 3 -14 17 -14 31 0 22 -4 25 -25 21 -21 -4 -23 -2 -13 14 6 10 17 16 23 14
12 -5 35 36 35 61 0 8 9 15 20 15 13 0 18 5 14 15 -4 8 -2 15 4 15 5 0 13 11
16 24 7 29 32 56 52 56 23 0 16 -20 -8 -21 -18 -1 -15 -4 12 -13 19 -7 46 -17
60 -23 28 -12 42 -7 20 7 -8 6 -10 10 -5 11 6 0 -1 4 -15 8 -14 4 -25 13 -25
21 0 41 -72 62 -94 28z"/>
<path d="M4920 3400 c-9 -6 -10 -10 -3 -10 6 0 15 5 18 10 8 12 4 12 -15 0z"/>
<path d="M3785 3390 c3 -5 8 -10 11 -10 2 0 4 5 4 10 0 6 -5 10 -11 10 -5 0
-7 -4 -4 -10z"/>
<path d="M5642 3355 c-30 -63 -27 -68 8 -15 31 46 36 60 22 60 -4 0 -18 -20
-30 -45z"/>
<path d="M2780 3380 c0 -5 5 -10 11 -10 5 0 7 5 4 10 -3 6 -8 10 -11 10 -2 0
-4 -4 -4 -10z"/>
<path d="M4865 3370 c4 -11 2 -20 -4 -20 -6 0 -11 -6 -11 -14 0 -9 7 -12 20
-9 14 4 20 0 20 -10 0 -29 15 -26 16 3 1 22 -2 27 -16 23 -14 -4 -17 0 -13 21
3 16 1 26 -7 26 -7 0 -9 -8 -5 -20z"/>
<path d="M5010 3378 c0 -4 9 -8 20 -8 11 0 20 4 20 8 0 4 -9 8 -20 8 -11 0
-20 -4 -20 -8z"/>
<path d="M1984 3364 c3 -9 6 -20 6 -24 0 -5 9 -14 19 -19 31 -17 44 9 20 39
l-20 25 6 -30 6 -30 -16 28 c-17 29 -31 37 -21 11z"/>
<path d="M2105 3369 c-4 -6 -5 -12 -2 -15 2 -3 7 2 10 11 7 17 1 20 -8 4z"/>
<path d="M2157 3373 c-4 -3 -7 -11 -7 -17 0 -6 5 -5 12 2 6 6 9 14 7 17 -3 3
-9 2 -12 -2z"/>
<path d="M3031 3364 c0 -11 3 -14 6 -6 3 7 2 16 -1 19 -3 4 -6 -2 -5 -13z"/>
<path d="M4020 3371 c0 -5 5 -13 10 -16 6 -3 10 -2 10 4 0 5 -4 13 -10 16 -5
3 -10 2 -10 -4z"/>
<path d="M4540 3369 c0 -5 5 -7 10 -4 6 3 10 8 10 11 0 2 -4 4 -10 4 -5 0 -10
-5 -10 -11z"/>
<path d="M4980 3365 c0 -10 -8 -24 -17 -31 -17 -13 -17 -14 1 -7 14 5 17 3 11
-7 -5 -9 -4 -11 4 -6 6 4 9 12 6 17 -4 5 1 9 9 9 20 0 20 14 1 30 -12 10 -15
9 -15 -5z"/>
<path d="M2175 3349 c-4 -12 -3 -25 2 -29 4 -5 8 4 9 21 1 34 -2 37 -11 8z"/>
<path d="M2851 3353 c0 -10 3 -13 5 -6 3 7 12 9 21 6 11 -4 14 -2 9 5 -11 18
-36 14 -35 -5z"/>
<path d="M1960 3344 c0 -8 5 -12 10 -9 6 4 8 11 5 16 -9 14 -15 11 -15 -7z"/>
<path d="M2610 3339 c0 -11 5 -17 10 -14 6 3 10 13 10 21 0 8 -4 14 -10 14 -5
0 -10 -9 -10 -21z"/>
<path d="M2654 3343 c22 -79 37 -155 42 -225 4 -47 13 -88 21 -96 7 -7 13 -12
13 -9 0 20 -33 221 -42 252 -6 22 -10 52 -9 68 1 19 -4 27 -15 27 -10 0 -14
-6 -10 -17z"/>
<path d="M1910 3335 c0 -8 4 -15 10 -15 5 0 7 7 4 15 -4 8 -8 15 -10 15 -2 0
-4 -7 -4 -15z"/>
<path d="M3010 3343 c0 -7 7 -16 16 -21 10 -5 16 -24 17 -49 2 -35 4 -39 17
-30 8 6 17 12 19 14 1 1 -4 12 -13 25 -9 12 -16 31 -16 41 0 11 -5 15 -11 11
-6 -3 -15 0 -20 7 -6 9 -9 10 -9 2z"/>
<path d="M3671 3336 c-12 -14 -12 -16 2 -10 11 4 15 0 13 -13 -2 -10 -1 -12 1
-5 3 8 11 11 18 8 9 -3 12 0 8 9 -3 8 -9 13 -13 10 -5 -3 -10 0 -12 6 -2 7 -9
5 -17 -5z"/>
<path d="M4486 3341 c-4 -5 -2 -12 3 -15 5 -4 12 -2 15 3 4 5 2 12 -3 15 -5 4
-12 2 -15 -3z"/>
<path d="M4531 3334 c0 -11 3 -14 6 -6 3 7 2 16 -1 19 -3 4 -6 -2 -5 -13z"/>
<path d="M2123 3329 c-9 -9 -8 -20 4 -43 10 -18 18 -26 21 -18 3 10 7 10 18 1
18 -15 18 0 -2 39 -17 35 -24 38 -41 21z"/>
<path d="M5266 3324 c-4 -10 -1 -14 6 -12 15 5 23 28 10 28 -5 0 -13 -7 -16
-16z"/>
<path d="M1796 3304 c-15 -22 -16 -28 -5 -35 8 -5 17 -9 22 -9 4 0 7 -7 7 -15
0 -8 5 -15 11 -15 5 0 7 -5 3 -11 -4 -7 -1 -10 7 -7 12 4 15 30 10 71 -1 4
-10 7 -21 7 -25 0 -26 16 -2 29 13 8 14 10 2 10 -8 0 -23 -11 -34 -25z"/>
<path d="M3537 3295 c6 -36 5 -39 -10 -26 -12 10 -17 10 -17 2 0 -22 29 -43
48 -36 12 5 13 9 5 12 -7 3 -13 14 -14 26 0 12 -4 31 -9 42 -7 14 -8 8 -3 -20z"/>
<path d="M3560 3323 c1 -17 27 -41 37 -35 7 4 2 14 -13 25 -13 10 -24 14 -24
10z"/>
<path d="M3810 3320 c-9 -6 -10 -10 -3 -10 6 0 15 5 18 10 8 12 4 12 -15 0z"/>
<path d="M3877 3317 c-3 -9 -2 -38 2 -64 10 -50 4 -110 -11 -130 -6 -7 -10
-28 -11 -48 -1 -23 -6 -35 -15 -35 -9 0 -13 -7 -9 -20 3 -11 2 -20 -3 -20 -4
0 -13 27 -19 60 -7 33 -15 60 -18 60 -3 0 -2 -15 2 -32 11 -51 21 -177 14
-175 -4 1 -7 -2 -7 -8 0 -5 4 -9 9 -7 12 3 12 -15 0 -22 -5 -4 -5 -22 1 -43 5
-21 13 -51 16 -68 10 -43 91 -277 102 -295 8 -13 11 -13 26 1 13 14 14 21 4
39 -7 12 -9 35 -6 51 4 21 2 27 -9 23 -10 -4 -17 7 -25 38 -7 24 -20 63 -30
88 -11 25 -24 62 -30 83 -6 20 -17 37 -23 37 -8 0 -8 3 -2 8 6 4 11 36 13 72
2 36 11 90 20 120 14 50 16 53 24 30 5 -18 6 -14 2 13 -8 59 30 124 98 169 14
10 19 20 15 31 -9 24 -19 21 -42 -14 -29 -44 -53 -55 -59 -27 -20 97 -22 103
-29 85z"/>
<path d="M4022 3323 c-12 -2 -20 -9 -17 -14 9 -14 32 -11 39 6 3 8 4 14 3 14
-1 -1 -12 -4 -25 -6z"/>
<path d="M5228 3323 c7 -3 16 -2 19 1 4 3 -2 6 -13 5 -11 0 -14 -3 -6 -6z"/>
<path d="M3093 3281 c1 -21 5 -37 10 -34 4 2 7 0 7 -5 0 -5 8 -12 18 -14 12
-4 17 2 18 19 1 12 -2 23 -7 23 -5 0 -9 8 -9 18 0 14 -2 15 -10 2 -8 -13 -10
-13 -10 2 0 9 -4 20 -10 23 -6 4 -9 -10 -7 -34z"/>
<path d="M3632 3308 c-15 -15 -16 -38 -1 -38 6 0 9 6 6 14 -3 7 0 19 6 25 6 6
9 11 6 11 -3 0 -10 -5 -17 -12z"/>
<path d="M3770 3310 c-8 -5 -12 -11 -9 -14 2 -3 11 -1 19 4 8 5 12 11 9 14 -2
3 -11 1 -19 -4z"/>
<path d="M5000 3299 c-35 -19 -35 -19 -5 -13 17 3 40 7 52 8 23 3 45 16 25 16
-5 0 -16 2 -24 4 -7 2 -29 -5 -48 -15z"/>
<path d="M4800 3290 c-20 -16 -21 -20 -8 -20 10 0 22 9 28 20 13 25 11 25 -20
0z"/>
<path d="M4854 3295 c8 -8 20 -15 27 -15 9 0 8 4 -1 15 -7 8 -19 15 -27 15
-12 0 -12 -2 1 -15z"/>
<path d="M1671 3286 c-9 -11 -9 -15 1 -19 10 -4 8 -9 -5 -20 -12 -10 -15 -17
-7 -22 8 -5 8 -11 0 -20 -8 -9 -4 -12 17 -9 15 1 33 -2 40 -8 8 -6 17 -8 20
-4 10 10 -13 42 -27 38 -7 -1 -9 5 -6 16 4 11 0 24 -9 32 -8 7 -12 16 -9 21 8
14 -2 10 -15 -5z"/>
<path d="M2785 3290 c3 -5 8 -10 11 -10 2 0 4 5 4 10 0 6 -5 10 -11 10 -5 0
-7 -4 -4 -10z"/>
<path d="M2873 3277 c6 -12 16 -25 21 -28 5 -4 6 -11 2 -17 -3 -6 -2 -13 4
-17 5 -3 10 0 10 7 0 22 -24 67 -37 72 -10 4 -10 1 0 -17z"/>
<path d="M2980 3290 c0 -5 5 -10 11 -10 5 0 7 5 4 10 -3 6 -8 10 -11 10 -2 0
-4 -4 -4 -10z"/>
<path d="M5586 3284 c-11 -7 -18 -16 -15 -18 2 -2 13 2 23 10 11 7 18 16 15
18 -2 2 -13 -2 -23 -10z"/>
<path d="M2080 3275 c0 -8 4 -15 10 -15 5 0 7 7 4 15 -4 8 -8 15 -10 15 -2 0
-4 -7 -4 -15z"/>
<path d="M1893 3272 c-7 -4 -9 -13 -4 -21 6 -10 10 -9 15 5 8 20 4 25 -11 16z"/>
<path d="M1940 3266 c0 -8 -5 -16 -12 -18 -7 -3 -8 -7 -2 -11 5 -3 15 3 22 13
7 12 8 21 2 25 -6 3 -10 0 -10 -9z"/>
<path d="M2835 3270 c27 -12 43 -12 25 0 -8 5 -22 9 -30 9 -10 0 -8 -3 5 -9z"/>
<path d="M3021 3272 c0 -7 -5 -11 -10 -8 -15 10 -21 -22 -6 -34 12 -10 16 -9
21 3 3 9 4 24 1 34 -3 10 -5 12 -6 5z"/>
<path d="M4891 3259 c-25 -11 -51 -17 -58 -14 -8 2 -11 0 -8 -5 3 -6 1 -10 -4
-10 -16 0 -13 -17 3 -23 11 -4 13 -1 9 10 -4 10 -2 14 5 9 6 -3 14 -1 17 5 4
5 13 8 20 5 8 -3 19 2 26 10 6 8 20 12 29 9 11 -3 20 1 24 10 7 20 -9 18 -63
-6z"/>
<path d="M1965 3259 c-12 -19 5 -23 22 -6 16 16 16 17 1 17 -9 0 -20 -5 -23
-11z"/>
<path d="M4067 3263 c-17 -17 -4 -61 29 -98 35 -39 35 -39 13 -5 -13 19 -27
38 -32 41 -6 4 -7 21 -4 38 7 32 5 36 -6 24z"/>
<path d="M4347 3250 c10 -11 19 -20 21 -20 1 0 -2 9 -8 20 -6 11 -15 20 -20
20 -6 0 -2 -9 7 -20z"/>
<path d="M2930 3245 c0 -6 9 -11 20 -10 30 2 34 12 5 17 -15 3 -25 1 -25 -7z"/>
<path d="M3680 3250 c0 -5 5 -12 10 -15 6 -3 10 -11 10 -17 0 -7 -5 -6 -15 2
-19 16 -49 5 -41 -15 3 -8 0 -15 -6 -15 -9 0 -9 -3 0 -12 8 -8 15 -8 27 2 10
8 15 9 15 1 0 -6 -4 -11 -10 -11 -5 0 -10 -6 -10 -14 0 -15 35 -27 56 -19 22
8 16 25 -6 18 -24 -8 -24 -7 -5 39 10 23 11 36 5 36 -6 0 -9 4 -6 9 3 5 -1 11
-9 15 -8 3 -15 1 -15 -4z"/>
<path d="M4960 3249 c0 -5 1 -9 3 -9 1 0 17 -4 35 -9 43 -13 41 1 -3 15 -19 6
-35 7 -35 3z"/>
<path d="M1532 3235 c-6 -11 -12 -14 -12 -7 0 13 -20 17 -20 4 0 -5 6 -17 14
-27 13 -18 14 -18 25 4 16 28 9 53 -7 26z"/>
<path d="M2816 3224 c-5 -18 -3 -30 6 -35 18 -12 28 -11 28 1 0 6 -5 10 -11
10 -6 0 -9 6 -6 13 3 8 2 19 -3 26 -5 9 -10 4 -14 -15z"/>
<path d="M3386 3235 c-11 -8 -15 -15 -9 -15 6 0 16 7 23 15 16 19 11 19 -14 0z"/>
<path d="M4403 3243 c9 -2 23 -2 30 0 6 3 -1 5 -18 5 -16 0 -22 -2 -12 -5z"/>
<path d="M5540 3240 c-9 -6 -10 -10 -3 -10 6 0 15 5 18 10 8 12 4 12 -15 0z"/>
<path d="M3600 3230 c-8 -5 -10 -10 -5 -10 6 0 17 5 25 10 8 5 11 10 5 10 -5
0 -17 -5 -25 -10z"/>
<path d="M5047 3234 c-9 -10 12 -34 29 -34 19 0 57 -22 68 -39 6 -9 10 -10 15
-2 6 8 16 8 40 0 17 -6 34 -9 37 -6 3 3 -8 8 -25 12 -17 4 -31 11 -31 17 0 5
-6 8 -12 5 -15 -5 -100 30 -108 44 -4 5 -9 6 -13 3z"/>
<path d="M1786 3214 c-24 -23 -19 -27 9 -8 14 9 25 18 25 20 0 10 -20 3 -34
-12z"/>
<path d="M1870 3220 c0 -5 5 -10 11 -10 5 0 7 5 4 10 -3 6 -8 10 -11 10 -2 0
-4 -4 -4 -10z"/>
<path d="M4324 3204 c11 -7 23 -11 29 -7 6 3 7 1 3 -5 -4 -7 -1 -12 9 -12 9 0
13 -4 10 -10 -3 -6 1 -7 10 -4 12 5 13 10 4 20 -6 7 -9 17 -6 21 3 4 -13 9
-36 9 -37 2 -39 0 -23 -12z"/>
<path d="M2160 3203 c0 -11 89 -97 95 -91 2 2 -18 25 -46 52 -27 26 -49 43
-49 39z"/>
<path d="M3340 3200 c0 -5 5 -10 10 -10 6 0 10 5 10 10 0 6 -4 10 -10 10 -5 0
-10 -4 -10 -10z"/>
<path d="M3727 3203 c-4 -3 -7 -11 -7 -17 0 -6 5 -5 12 2 6 6 9 14 7 17 -3 3
-9 2 -12 -2z"/>
<path d="M4940 3200 c-9 -6 -10 -10 -3 -10 6 0 15 5 18 10 8 12 4 12 -15 0z"/>
<path d="M5470 3195 c-14 -8 -19 -14 -12 -15 7 0 10 -5 6 -12 -4 -7 -3 -8 5
-4 6 4 8 12 5 18 -4 7 5 8 27 3 30 -7 32 -6 20 9 -16 19 -19 19 -51 1z"/>
<path d="M1850 3190 c0 -5 5 -10 10 -10 6 0 10 5 10 10 0 6 -4 10 -10 10 -5 0
-10 -4 -10 -10z"/>
<path d="M2908 3187 c24 -30 23 -73 -2 -109 -13 -20 -22 -39 -19 -42 8 -8 33
14 33 28 0 7 16 31 35 53 19 23 35 45 35 49 0 5 -7 -2 -16 -14 -18 -26 -36
-29 -33 -4 3 36 -2 48 -22 49 -15 1 -18 -2 -11 -10z"/>
<path d="M3583 3175 c-6 -14 -7 -23 -2 -19 13 8 31 44 22 44 -4 0 -13 -11 -20
-25z"/>
<path d="M1490 3175 c0 -8 4 -15 10 -15 5 0 7 7 4 15 -4 8 -8 15 -10 15 -2 0
-4 -7 -4 -15z"/>
<path d="M1742 3174 c-8 -8 -21 -13 -30 -10 -9 3 -30 8 -47 11 -25 5 -27 4
-12 -5 10 -7 36 -14 57 -16 29 -4 39 -1 44 12 9 22 4 25 -12 8z"/>
<path d="M5545 3180 c3 -5 13 -10 21 -10 8 0 12 5 9 10 -3 6 -13 10 -21 10 -8
0 -12 -4 -9 -10z"/>
<path d="M5590 3180 c0 -4 6 -13 14 -19 10 -9 15 -8 19 3 3 8 -2 16 -14 19
-10 3 -19 2 -19 -3z"/>
<path d="M4320 3171 c0 -5 5 -13 10 -16 6 -3 10 -2 10 4 0 5 -4 13 -10 16 -5
3 -10 2 -10 -4z"/>
<path d="M4884 3173 c3 -3 -9 -17 -27 -30 -30 -23 -31 -24 -7 -21 14 2 24 9
23 16 -3 13 13 17 20 5 2 -5 2 -2 1 5 -2 6 1 12 6 12 6 0 10 -7 10 -16 0 -8 5
-12 10 -9 8 5 8 11 1 19 -6 7 -9 15 -6 17 2 3 -5 6 -17 6 -11 1 -18 -1 -14 -4z"/>
<path d="M5386 3169 c-14 -9 -16 -13 -5 -20 7 -4 10 -11 6 -15 -3 -4 -13 -1
-22 6 -9 8 -15 8 -15 2 0 -6 9 -14 20 -17 23 -7 26 -21 8 -28 -7 -2 -10 -8 -5
-12 10 -11 36 26 30 42 -3 7 0 13 6 13 6 0 8 6 5 14 -3 8 2 16 13 19 16 4 16
5 -2 6 -11 0 -28 -4 -39 -10z"/>
<path d="M5640 3170 c0 -5 5 -10 10 -10 6 0 10 5 10 10 0 6 -4 10 -10 10 -5 0
-10 -4 -10 -10z"/>
<path d="M1115 3160 c3 -5 8 -10 11 -10 2 0 4 5 4 10 0 6 -5 10 -11 10 -5 0
-7 -4 -4 -10z"/>
<path d="M1834 3161 c-2 -2 -4 -11 -4 -20 0 -12 2 -13 9 -3 10 17 61 5 61 -14
0 -8 6 -14 14 -14 13 0 13 4 1 28 -11 21 -22 27 -46 27 -17 0 -33 -2 -35 -4z"/>
<path d="M4805 3160 c-3 -5 -1 -10 4 -10 6 0 11 5 11 10 0 6 -2 10 -4 10 -3 0
-8 -4 -11 -10z"/>
<path d="M1096 3136 c8 -14 25 -26 37 -28 12 -2 23 -12 26 -23 2 -11 6 -22 10
-25 18 -14 62 -82 57 -87 -3 -4 -13 2 -21 13 -13 18 -14 18 -8 -3 8 -33 31
-50 39 -29 3 9 10 13 15 10 19 -12 7 10 -31 56 -44 53 -47 60 -24 60 8 0 12 4
9 10 -3 6 1 7 9 4 22 -9 20 9 -4 31 -18 16 -20 16 -20 2 0 -10 -8 -17 -20 -17
-11 0 -20 4 -20 9 0 5 -11 12 -25 15 -14 4 -25 11 -25 16 0 6 -5 10 -10 10 -6
0 -3 -11 6 -24z"/>
<path d="M1580 3150 c0 -5 7 -7 15 -4 8 4 15 8 15 10 0 2 -7 4 -15 4 -8 0 -15
-4 -15 -10z"/>
<path d="M3525 3149 c-11 -17 1 -21 15 -4 8 9 8 15 2 15 -6 0 -14 -5 -17 -11z"/>
<path d="M5568 3153 c-23 -6 -22 -9 1 -34 15 -17 23 -19 38 -10 17 10 17 11
-4 17 -13 4 -20 11 -16 20 3 8 4 13 2 13 -2 -1 -12 -3 -21 -6z"/>
<path d="M1620 3140 c0 -5 7 -10 15 -10 8 0 15 5 15 10 0 6 -7 10 -15 10 -8 0
-15 -4 -15 -10z"/>
<path d="M1685 3130 c-3 -11 -13 -20 -22 -20 -9 0 -13 -6 -10 -14 3 -8 -5 -25
-18 -38 -14 -13 -25 -30 -25 -38 1 -9 8 -5 21 13 19 25 48 40 34 17 -3 -6 1
-7 9 -4 18 7 22 24 6 24 -6 0 -1 13 11 30 12 16 27 26 33 23 6 -4 5 1 -3 10
-18 22 -28 21 -36 -3z"/>
<path d="M4530 3141 c0 -6 4 -13 10 -16 6 -3 7 1 4 9 -7 18 -14 21 -14 7z"/>
<path d="M4560 3141 c0 -6 4 -13 10 -16 6 -3 7 1 4 9 -7 18 -14 21 -14 7z"/>
<path d="M5278 3135 c34 -16 44 -45 15 -45 -15 0 -16 -2 -3 -10 9 -6 14 -23
13 -47 -4 -70 -8 -78 -44 -85 l-34 -6 37 1 c20 1 40 -2 44 -6 11 -10 26 -9 19
2 -3 5 3 12 12 14 14 4 13 5 -4 6 -20 1 -22 6 -20 66 1 48 5 64 14 60 16 -6
17 7 1 23 -9 9 -9 12 0 12 7 0 12 4 12 8 0 4 -8 8 -17 8 -10 0 -31 3 -48 7
l-30 6 33 -14z"/>
<path d="M5467 3133 c-11 -11 -17 -13 -17 -5 0 7 -4 12 -10 12 -14 0 -12 -17
3 -23 14 -5 54 19 46 28 -3 2 -13 -3 -22 -12z"/>
<path d="M1514 3125 c-4 -8 -12 -15 -20 -15 -8 0 -14 -4 -14 -10 0 -5 5 -10
11 -10 5 0 8 -4 5 -8 -2 -4 3 -8 13 -9 9 -1 17 6 17 15 1 9 4 25 9 35 4 10 3
17 -4 17 -7 0 -14 -7 -17 -15z"/>
<path d="M2821 3124 c0 -11 3 -14 6 -6 3 7 2 16 -1 19 -3 4 -6 -2 -5 -13z"/>
<path d="M3290 3124 l-25 -15 25 7 c28 7 35 12 29 18 -2 2 -15 -2 -29 -10z"/>
<path d="M1750 3123 c0 -5 5 -15 10 -23 8 -12 10 -11 10 8 0 12 -4 22 -10 22
-5 0 -10 -3 -10 -7z"/>
<path d="M2341 3115 c-1 -11 9 -26 22 -34 20 -13 21 -13 8 2 -12 15 -11 17 3
17 10 0 14 5 11 11 -4 6 -13 8 -20 5 -8 -3 -16 0 -19 7 -2 7 -5 3 -5 -8z"/>
<path d="M2412 3121 c-10 -6 -10 -10 2 -20 12 -10 15 -9 13 8 -1 12 -1 21 -2
21 0 0 -6 -4 -13 -9z"/>
<path d="M3115 3120 c-3 -5 -1 -10 4 -10 6 0 11 5 11 10 0 6 -2 10 -4 10 -3 0
-8 -4 -11 -10z"/>
<path d="M4302 3110 c0 -14 2 -19 5 -12 2 6 2 18 0 25 -3 6 -5 1 -5 -13z"/>
<path d="M903 3104 c-7 -18 13 -35 34 -27 19 7 16 21 -7 33 -16 9 -22 8 -27
-6z"/>
<path d="M2985 3110 c3 -5 8 -10 11 -10 2 0 4 5 4 10 0 6 -5 10 -11 10 -5 0
-7 -4 -4 -10z"/>
<path d="M4157 3101 c3 -11 14 -28 24 -37 18 -16 19 -16 13 -1 -3 9 -11 17
-16 17 -6 0 -8 9 -5 20 3 12 0 20 -8 20 -8 0 -11 -7 -8 -19z"/>
<path d="M1535 3100 c-3 -5 3 -10 14 -10 12 0 21 5 21 10 0 6 -6 10 -14 10 -8
0 -18 -4 -21 -10z"/>
<path d="M3044 3088 c4 -16 1 -29 -7 -32 -6 -3 -3 -4 8 -2 83 17 93 17 97 -2
3 -11 1 -27 -4 -36 -7 -12 -5 -18 7 -22 9 -4 14 -12 12 -18 -3 -6 7 -25 20
-41 17 -20 23 -23 17 -10 -4 11 -7 33 -7 50 0 16 -5 34 -12 40 -7 5 -15 22
-19 38 -5 20 -3 27 9 27 8 0 15 4 15 9 0 6 -12 6 -32 0 -49 -14 -79 -11 -95 9
-13 15 -14 15 -9 -10z"/>
<path d="M3250 3105 c0 -5 6 -30 14 -55 12 -39 14 -42 20 -22 5 15 1 33 -13
55 -11 18 -21 28 -21 22z"/>
<path d="M3310 3090 c0 -19 3 -21 12 -12 9 9 9 15 0 24 -9 9 -12 7 -12 -12z"/>
<path d="M4800 3106 c0 -2 7 -7 16 -10 8 -3 12 -2 9 4 -6 10 -25 14 -25 6z"/>
<path d="M2217 3093 c-3 -5 6 -9 19 -9 13 -1 21 2 18 7 -6 11 -31 12 -37 2z"/>
<path d="M2831 3095 c1 -19 18 -51 18 -35 0 8 -4 22 -9 30 -5 8 -9 11 -9 5z"/>
<path d="M3425 3090 c3 -5 8 -10 11 -10 2 0 4 5 4 10 0 6 -5 10 -11 10 -5 0
-7 -4 -4 -10z"/>
<path d="M2996 3082 c-3 -5 1 -9 9 -9 8 0 12 4 9 9 -3 4 -7 8 -9 8 -2 0 -6 -4
-9 -8z"/>
<path d="M3195 3052 c1 -23 7 -48 14 -55 6 -8 8 -23 4 -32 -4 -13 -3 -16 5
-11 7 4 12 16 12 27 0 10 5 18 12 17 7 -2 13 8 14 21 1 23 1 24 -12 6 -16 -22
-19 -12 -4 16 9 15 7 19 -6 19 -9 0 -22 8 -29 17 -11 14 -12 10 -10 -25z"/>
<path d="M5125 3079 c-11 -4 -32 -8 -47 -8 -35 -1 -53 -31 -33 -57 13 -18 13
-17 11 9 -3 29 -5 28 79 45 24 5 34 10 25 14 -8 3 -24 2 -35 -3z"/>
<path d="M943 3073 c-15 -5 -18 -33 -4 -33 5 0 12 6 14 13 3 7 6 4 6 -6 1 -23
21 -12 21 12 0 17 -13 22 -37 14z"/>
<path d="M1586 3065 c4 -8 11 -15 16 -15 6 0 5 6 -2 15 -7 8 -14 15 -16 15 -2
0 -1 -7 2 -15z"/>
<path d="M2527 3063 c4 -11 2 -14 -5 -9 -7 4 -12 3 -12 -2 0 -11 49 -26 58
-17 3 3 0 5 -6 5 -7 0 -12 6 -12 14 0 8 -7 16 -14 19 -11 4 -13 1 -9 -10z"/>
<path d="M4838 3060 c-4 -13 -3 -29 1 -33 12 -12 51 1 51 16 0 8 -3 8 -12 -1
-19 -19 -26 -14 -30 16 l-3 27 -7 -25z"/>
<path d="M5218 3073 c7 -3 16 -2 19 1 4 3 -2 6 -13 5 -11 0 -14 -3 -6 -6z"/>
<path d="M5350 3072 c0 -6 12 -20 27 -32 21 -16 24 -23 14 -29 -9 -6 -10 -11
-2 -15 18 -11 13 -26 -10 -26 -11 0 -18 -4 -15 -8 9 -14 68 -1 62 14 -3 7 0
15 7 18 7 3 2 3 -10 0 -27 -6 -31 11 -5 21 15 6 14 8 -5 16 -13 4 -23 16 -23
25 0 10 -3 14 -7 11 -3 -4 -12 -2 -20 4 -9 8 -13 8 -13 1z"/>
<path d="M1131 3053 c7 -12 15 -20 18 -17 3 2 -3 12 -13 22 -17 16 -18 16 -5
-5z"/>
<path d="M1470 3063 c0 -6 -3 -18 -6 -27 -3 -9 -2 -16 4 -16 15 0 24 32 12 44
-7 7 -10 7 -10 -1z"/>
<path d="M2446 3062 c-3 -5 1 -15 9 -22 21 -17 27 -9 10 13 -7 10 -16 14 -19
9z"/>
<path d="M2491 3054 c0 -11 3 -14 6 -6 3 7 2 16 -1 19 -3 4 -6 -2 -5 -13z"/>
<path d="M2940 3060 c0 -5 4 -10 9 -10 6 0 13 5 16 10 3 6 -1 10 -9 10 -9 0
-16 -4 -16 -10z"/>
<path d="M4986 3061 c-4 -5 3 -7 14 -4 23 6 26 13 6 13 -8 0 -17 -4 -20 -9z"/>
<path d="M2990 3045 c-18 -11 -20 -14 -8 -15 20 0 37 -28 39 -62 1 -13 3 -16
5 -8 2 8 1 34 -3 57 -8 41 -8 41 -33 28z"/>
<path d="M4900 3052 c0 -5 14 -7 30 -4 17 2 30 6 30 8 0 2 -13 4 -30 4 -16 0
-30 -4 -30 -8z"/>
<path d="M3385 3030 c-6 -20 21 -69 39 -70 5 0 0 10 -12 23 -14 15 -19 30 -15
45 7 27 -3 29 -12 2z"/>
<path d="M2740 3030 c0 -6 6 -13 14 -16 8 -3 14 -11 12 -17 -1 -7 -1 -9 1 -4
3 4 9 5 14 2 5 -4 17 -1 26 5 17 11 17 11 -1 6 -20 -7 -49 11 -40 25 3 5 -2 9
-10 9 -9 0 -16 -5 -16 -10z"/>
<path d="M875 3020 c-5 -8 -4 -15 3 -18 18 -6 2 -32 -20 -32 -14 0 -18 -5 -14
-16 4 -9 2 -13 -5 -8 -7 4 -10 1 -7 -7 3 -8 10 -13 17 -12 6 2 13 -8 17 -21 4
-16 11 -23 20 -19 18 7 43 -24 44 -54 0 -16 6 -23 20 -23 11 0 20 -5 20 -11 0
-5 5 -7 11 -4 6 4 7 14 3 24 -4 9 -6 26 -5 39 1 19 -3 21 -25 16 -17 -4 -29
-2 -35 7 -13 21 -11 29 7 29 8 0 12 -4 9 -10 -8 -13 5 -13 25 0 11 7 11 10 2
10 -7 0 -11 4 -7 9 10 17 -11 21 -31 6 -10 -8 -26 -14 -34 -14 -12 0 -11 3 4
14 10 8 24 16 30 19 7 3 6 8 -4 15 -8 5 -19 25 -25 42 -9 25 -14 29 -20 19z"/>
<path d="M3905 2990 c3 -25 24 -81 45 -124 22 -44 40 -86 40 -95 0 -19 72
-162 78 -156 3 3 -7 33 -22 67 -41 93 -43 99 -55 146 -7 23 -16 42 -21 42 -13
0 -41 57 -57 115 l-13 50 5 -45z"/>
<path d="M1120 3010 c0 -5 5 -10 11 -10 5 0 7 5 4 10 -3 6 -8 10 -11 10 -2 0
-4 -4 -4 -10z"/>
<path d="M1150 3016 c0 -16 63 -140 67 -130 2 6 -11 37 -28 70 -33 63 -39 71
-39 60z"/>
<path d="M1572 3006 c7 -8 15 -12 17 -11 5 6 -10 25 -20 25 -5 0 -4 -6 3 -14z"/>
<path d="M2548 3013 c7 -3 16 -2 19 1 4 3 -2 6 -13 5 -11 0 -14 -3 -6 -6z"/>
<path d="M3047 3007 c-3 -8 4 -14 19 -15 27 -2 32 13 8 22 -21 8 -21 8 -27 -7z"/>
<path d="M4566 3003 c-6 -14 -5 -15 5 -6 7 7 10 15 7 18 -3 3 -9 -2 -12 -12z"/>
<path d="M4970 3016 c0 -2 7 -6 15 -10 8 -3 15 -1 15 4 0 6 -7 10 -15 10 -8 0
-15 -2 -15 -4z"/>
<path d="M910 3000 c0 -5 5 -10 11 -10 5 0 7 5 4 10 -3 6 -8 10 -11 10 -2 0
-4 -4 -4 -10z"/>
<path d="M1415 2985 c-26 -25 -32 -45 -14 -45 5 0 8 4 5 9 -3 4 3 16 14 26 13
11 20 14 20 6 0 -7 5 -9 11 -5 8 4 9 -1 5 -17 -6 -21 -5 -22 4 -6 8 13 9 22 1
31 -6 7 -8 16 -4 19 3 4 1 7 -6 7 -6 0 -23 -11 -36 -25z"/>
<path d="M1562 2975 c0 -16 2 -22 5 -12 2 9 2 23 0 30 -3 6 -5 -1 -5 -18z"/>
<path d="M1592 2970 c-18 -29 -42 -102 -42 -129 0 -24 0 -24 -22 -5 l-23 19
23 -26 c24 -27 31 -75 10 -63 -10 6 -10 4 0 -7 6 -7 12 -21 12 -31 0 -10 5
-18 10 -18 6 0 10 -7 10 -15 0 -8 -4 -15 -10 -15 -5 0 -10 -7 -10 -15 0 -21
-26 -19 -49 4 -11 11 -21 17 -24 15 -3 -3 -15 7 -26 23 -17 20 -24 24 -30 14
-5 -8 -17 -11 -29 -7 -38 12 -127 8 -164 -8 -47 -20 -48 -20 -49 2 -1 11 -3 9
-8 -7 -9 -32 -46 -35 -79 -7 -38 34 -47 55 -26 71 19 13 21 12 -48 31 -33 9
-19 -24 31 -78 50 -53 52 -82 4 -51 -13 8 -23 11 -23 5 0 -15 -43 -23 -51 -10
-4 7 -5 16 -2 22 3 5 1 6 -5 2 -7 -4 -23 5 -38 19 -28 28 -36 27 -41 -8 -2
-14 0 -17 5 -10 6 10 12 10 28 -3 10 -8 14 -13 7 -10 -6 4 -14 2 -18 -4 -4 -6
-11 -8 -16 -5 -5 4 -9 2 -9 -4 0 -5 5 -13 10 -16 6 -4 8 -11 5 -16 -4 -5 2
-19 12 -32 20 -25 55 -33 46 -11 -3 8 -11 14 -19 14 -16 0 -19 16 -4 25 6 3
10 2 10 -3 0 -9 43 -32 61 -32 5 0 4 9 -3 19 -9 14 -16 17 -24 10 -8 -7 -14
-6 -19 1 -11 17 1 23 51 28 46 4 84 -16 84 -43 0 -31 -106 -76 -123 -52 -6 9
-7 8 -4 -3 2 -8 12 -14 21 -14 9 1 16 -3 16 -8 0 -14 -93 -3 -98 11 -6 18 -20
13 -18 -6 2 -12 14 -18 42 -21 60 -5 67 -9 62 -42 -2 -16 -1 -27 4 -24 4 3 16
-8 26 -25 9 -17 20 -31 25 -31 14 0 7 19 -18 46 -25 27 -34 64 -15 64 6 0 10
-9 10 -19 0 -10 7 -22 16 -25 8 -3 13 -10 10 -15 -10 -15 18 -29 39 -20 11 4
14 8 7 8 -7 1 -11 5 -8 9 2 4 -11 23 -31 42 -19 19 -30 36 -24 38 6 2 9 8 6
12 -3 5 8 16 24 25 17 8 34 23 39 32 9 16 12 16 36 0 14 -10 26 -22 26 -27 0
-6 16 -18 35 -27 19 -9 36 -21 38 -27 6 -15 -38 -98 -47 -89 -3 3 -6 -1 -6
-10 0 -10 7 -17 16 -17 8 0 12 -4 9 -10 -3 -5 -15 -10 -26 -10 -34 0 -20 -15
14 -16 34 0 37 5 27 51 -5 20 0 42 14 60 14 19 15 19 26 -6 9 -19 20 -26 41
-27 16 0 29 4 29 9 0 5 -11 7 -26 5 -19 -4 -27 0 -33 17 -5 12 -7 25 -4 30 8
13 34 7 41 -10 4 -10 13 -19 21 -21 7 -1 30 -17 52 -34 31 -25 36 -34 29 -49
-7 -12 -6 -19 2 -21 6 -2 12 -15 13 -29 1 -14 9 -25 19 -27 14 -3 16 0 7 17
-6 12 -16 30 -22 42 -6 12 -9 23 -6 25 7 8 57 -21 57 -34 0 -7 5 -10 10 -7 6
4 17 2 24 -4 14 -12 128 -71 137 -71 3 0 6 7 6 15 0 8 -9 15 -19 15 -26 0
-116 47 -145 76 -13 13 -29 24 -34 24 -9 0 -38 19 -97 65 -38 29 -52 49 -40
57 7 4 15 3 16 -2 2 -6 8 -8 12 -5 5 3 16 -5 24 -17 9 -12 16 -18 16 -13 0 6
14 16 30 23 28 13 44 37 17 27 -6 -3 -18 4 -24 15 -12 18 -9 20 27 31 22 7 40
18 40 25 0 21 32 26 45 7 7 -10 11 -21 9 -25 -2 -4 0 -9 6 -13 6 -3 10 3 10
15 0 18 2 19 13 8 7 -7 18 -22 25 -33 8 -14 12 -16 12 -5 0 9 3 11 8 5 4 -6
27 -23 52 -38 25 -14 67 -47 94 -72 26 -25 55 -45 62 -45 17 0 19 36 2 43 -10
4 -9 8 2 16 26 18 -2 34 -35 19 -25 -11 -29 -10 -55 17 -14 17 -33 31 -41 33
-7 2 -16 7 -19 11 -3 4 -21 17 -40 28 -19 12 -46 36 -59 54 -22 29 -22 33 -8
44 9 7 14 15 10 19 -4 4 -1 12 7 17 13 9 13 10 -1 6 -13 -4 -16 7 -17 74 -1
59 2 79 11 79 9 0 12 10 9 29 -2 15 3 42 12 60 18 34 8 43 -12 11z m-215 -271
c26 -5 62 -21 78 -34 l30 -25 -27 -25 c-27 -25 -55 -35 -43 -15 7 12 -12 40
-26 40 -5 0 -9 -9 -9 -20 0 -11 -4 -20 -10 -20 -5 0 -7 -6 -4 -14 3 -9 -6 -22
-23 -33 -15 -10 -34 -23 -41 -30 -21 -20 -39 -15 -74 20 -18 18 -45 39 -60 46
-51 26 -27 65 58 97 68 26 85 28 151 13z m-437 -49 c0 -5 -4 -10 -10 -10 -5 0
-10 5 -10 10 0 6 5 10 10 10 6 0 10 -4 10 -10z m180 -10 c0 -5 -4 -10 -10 -10
-5 0 -10 5 -10 10 0 6 5 10 10 10 6 0 10 -4 10 -10z m286 -126 c-16 -17 -24
-8 -18 21 4 23 6 24 17 8 9 -12 9 -20 1 -29z"/>
<path d="M4903 2975 c-8 -22 6 -33 17 -15 13 20 12 30 0 30 -6 0 -13 -7 -17
-15z"/>
<path d="M2780 2964 c-14 -8 -18 -13 -10 -13 24 1 55 15 44 21 -5 2 -20 -1
-34 -8z"/>
<path d="M5485 2970 c3 -5 11 -10 16 -10 6 0 7 5 4 10 -3 6 -11 10 -16 10 -6
0 -7 -4 -4 -10z"/>
<path d="M1307 2953 c6 -16 5 -16 -10 -4 -10 8 -20 11 -24 7 -4 -3 3 -13 15
-22 12 -8 20 -20 17 -25 -4 -5 2 -9 12 -9 10 0 29 -7 42 -16 17 -13 20 -19 10
-25 -9 -5 -4 -10 17 -14 16 -3 44 -13 63 -21 44 -20 52 -10 9 12 -25 14 -29
19 -15 22 31 7 18 20 -17 15 -22 -3 -39 1 -49 11 -9 9 -21 16 -27 16 -6 0 -18
16 -26 35 -14 35 -29 50 -17 18z"/>
<path d="M2350 2956 c7 -7 14 -6 21 1 9 9 7 12 -9 10 -14 -1 -18 -5 -12 -11z"/>
<path d="M4614 2959 c-9 -16 2 -22 21 -11 15 8 16 10 1 15 -8 3 -18 2 -22 -4z"/>
<path d="M4656 2944 c-14 -16 -23 -30 -20 -33 2 -3 17 7 31 22 15 14 24 29 21
32 -3 4 -18 -6 -32 -21z"/>
<path d="M1420 2951 c0 -5 5 -13 10 -16 6 -3 10 -2 10 4 0 5 -4 13 -10 16 -5
3 -10 2 -10 -4z"/>
<path d="M680 2943 c1 -18 27 -40 53 -45 22 -4 27 -2 23 9 -3 8 -6 22 -6 30 0
12 -3 13 -14 4 -10 -8 -16 -9 -21 -1 -7 11 -35 14 -35 3z"/>
<path d="M2068 2943 c7 -3 16 -2 19 1 4 3 -2 6 -13 5 -11 0 -14 -3 -6 -6z"/>
<path d="M2307 2930 c-6 -24 8 -36 17 -14 8 22 7 34 -3 34 -5 0 -11 -9 -14
-20z"/>
<path d="M2920 2940 c0 -5 5 -10 10 -10 6 0 10 5 10 10 0 6 -4 10 -10 10 -5 0
-10 -4 -10 -10z"/>
<path d="M4718 2943 c6 -2 18 -2 25 0 6 3 1 5 -13 5 -14 0 -19 -2 -12 -5z"/>
<path d="M5205 2940 c-3 -5 -1 -10 4 -10 6 0 11 5 11 10 0 6 -2 10 -4 10 -3 0
-8 -4 -11 -10z"/>
<path d="M2118 2933 c7 -3 16 -2 19 1 4 3 -2 6 -13 5 -11 0 -14 -3 -6 -6z"/>
<path d="M3050 2933 c0 -7 -9 -13 -20 -13 -14 0 -18 -5 -13 -17 4 -9 8 -12 10
-6 2 6 13 9 23 6 22 -6 25 4 10 27 -6 10 -10 11 -10 3z"/>
<path d="M3865 2930 c-3 -5 1 -10 9 -10 9 0 16 5 16 10 0 6 -4 10 -9 10 -6 0
-13 -4 -16 -10z"/>
<path d="M4446 2923 c-6 -14 -5 -15 5 -6 7 7 10 15 7 18 -3 3 -9 -2 -12 -12z"/>
<path d="M5010 2930 l-45 -7 45 0 c25 -1 74 3 110 7 l65 7 -65 0 c-36 0 -85
-3 -110 -7z"/>
<path d="M1453 2915 c0 -8 4 -15 9 -15 4 0 8 7 8 15 0 8 -4 15 -8 15 -5 0 -9
-7 -9 -15z"/>
<path d="M5280 2920 c8 -5 24 -10 34 -10 26 0 18 6 -19 14 -22 5 -26 4 -15 -4z"/>
<path d="M1968 2913 c7 -3 16 -2 19 1 4 3 -2 6 -13 5 -11 0 -14 -3 -6 -6z"/>
<path d="M2370 2911 c0 -5 5 -13 10 -16 6 -3 10 -2 10 4 0 5 -4 13 -10 16 -5
3 -10 2 -10 -4z"/>
<path d="M2980 2905 c0 -8 4 -15 10 -15 5 0 7 7 4 15 -4 8 -8 15 -10 15 -2 0
-4 -7 -4 -15z"/>
<path d="M1258 2893 c6 -2 18 -2 25 0 6 3 1 5 -13 5 -14 0 -19 -2 -12 -5z"/>
<path d="M4433 2865 c0 -22 2 -30 4 -17 2 12 2 30 0 40 -3 9 -5 -1 -4 -23z"/>
<path d="M4684 2889 c-3 -5 -1 -9 5 -9 5 0 16 -3 25 -6 9 -3 16 -2 16 4 0 13
-38 23 -46 11z"/>
<path d="M1470 2882 c0 -5 9 -12 21 -15 13 -3 19 -1 16 6 -5 15 -37 22 -37 9z"/>
<path d="M1960 2884 c0 -5 12 -20 26 -34 22 -20 26 -21 23 -6 -4 19 -49 56
-49 40z"/>
<path d="M870 2861 c0 -5 7 -14 15 -21 12 -10 15 -10 15 3 0 8 -7 17 -15 21
-8 3 -15 2 -15 -3z"/>
<path d="M1591 2855 c1 -19 18 -51 18 -35 0 8 -4 22 -9 30 -5 8 -9 11 -9 5z"/>
<path d="M2981 2844 c0 -11 3 -14 6 -6 3 7 2 16 -1 19 -3 4 -6 -2 -5 -13z"/>
<path d="M1000 2832 c0 -5 7 -13 16 -16 10 -4 14 -1 12 6 -5 15 -28 23 -28 10z"/>
<path d="M2141 2824 c0 -11 3 -14 6 -6 3 7 2 16 -1 19 -3 4 -6 -2 -5 -13z"/>
<path d="M2268 2818 c-20 -25 -25 -49 -6 -30 19 19 29 14 22 -13 -4 -16 -2
-25 6 -25 6 0 8 6 5 13 -4 6 1 3 9 -7 22 -27 21 -2 -2 46 l-17 38 -17 -22z"/>
<path d="M2922 2810 c0 -19 2 -27 5 -17 2 9 2 25 0 35 -3 9 -5 1 -5 -18z"/>
<path d="M851 2813 c-1 -26 19 -73 31 -73 12 0 10 18 -3 22 -6 2 -14 19 -19
38 -5 23 -8 27 -9 13z"/>
<path d="M1640 2806 c0 -9 9 -24 20 -33 11 -10 20 -27 20 -38 0 -15 2 -17 9
-6 5 7 14 10 21 6 25 -16 -20 48 -52 74 -16 12 -18 11 -18 -3z"/>
<path d="M2011 2794 c0 -11 3 -14 6 -6 3 7 2 16 -1 19 -3 4 -6 -2 -5 -13z"/>
<path d="M1711 2784 c0 -11 3 -14 6 -6 3 7 2 16 -1 19 -3 4 -6 -2 -5 -13z"/>
<path d="M891 2783 c0 -4 4 -17 9 -28 8 -19 9 -19 9 2 1 12 -3 25 -9 28 -5 3
-10 3 -9 -2z"/>
<path d="M1613 2743 c1 -28 4 -49 6 -47 3 3 10 -8 16 -23 10 -23 9 -29 -2 -33
-11 -5 -10 -9 6 -24 19 -17 19 -17 14 6 -6 21 -5 22 10 9 9 -7 17 -21 17 -30
1 -20 30 -61 30 -41 0 10 5 9 18 -3 10 -10 21 -14 25 -11 3 3 -19 29 -49 58
-49 45 -58 59 -74 121 l-19 70 2 -52z"/>
<path d="M2345 2780 c-3 -5 -1 -10 4 -10 6 0 11 5 11 10 0 6 -2 10 -4 10 -3 0
-8 -4 -11 -10z"/>
<path d="M1824 2741 l1 -39 18 30 c18 30 16 48 -7 48 -9 0 -13 -13 -12 -39z"/>
<path d="M2370 2764 c0 -5 12 -18 28 -30 l27 -22 -23 -31 c-12 -17 -17 -31
-11 -31 7 0 9 -9 6 -22 -6 -20 -5 -20 11 -4 15 15 15 18 2 26 -11 7 -12 12 -3
18 6 4 14 19 18 33 5 22 1 30 -24 48 -17 13 -31 19 -31 15z"/>
<path d="M2621 2751 c-6 -11 -7 -22 -2 -25 5 -3 11 4 14 16 8 30 1 35 -12 9z"/>
<path d="M1655 2730 c0 -15 3 -26 8 -23 4 2 7 13 7 23 0 10 -3 21 -7 23 -5 3
-8 -8 -8 -23z"/>
<path d="M2022 2730 c0 -19 3 -60 8 -90 6 -48 7 -50 8 -15 0 22 -3 63 -8 90
-6 40 -7 43 -8 15z"/>
<path d="M2153 2725 c0 -22 2 -30 4 -17 2 12 2 30 0 40 -3 9 -5 -1 -4 -23z"/>
<path d="M1856 2724 c-4 -9 -4 -19 -1 -22 3 -3 5 0 5 7 0 8 7 11 15 7 9 -3 15
0 15 9 0 20 -26 19 -34 -1z"/>
<path d="M2304 2694 c1 -19 4 -34 7 -34 12 0 15 46 4 57 -8 8 -11 2 -11 -23z"/>
<path d="M2674 2715 c-3 -8 -4 -20 -2 -27 3 -7 7 -1 10 15 6 29 1 36 -8 12z"/>
<path d="M1762 2671 c-13 -29 -8 -61 10 -61 5 0 6 10 2 23 -3 12 -3 19 1 15 9
-9 34 33 28 45 -9 16 -29 6 -41 -22z"/>
<path d="M2215 2679 c-4 -12 -2 -26 5 -33 10 -8 11 -6 5 12 -6 22 -5 22 14 10
12 -7 21 -20 21 -30 0 -9 5 -20 10 -23 6 -3 10 1 10 10 0 9 5 13 10 10 6 -3
10 -2 10 4 0 5 -9 13 -20 16 -11 3 -20 10 -20 15 0 5 -9 14 -19 20 -16 8 -21
6 -26 -11z"/>
<path d="M2461 2672 c0 -15 -5 -21 -12 -16 -8 5 -10 -1 -7 -19 4 -20 0 -28
-14 -33 -12 -3 -17 -11 -14 -21 3 -8 6 -19 6 -24 0 -5 5 -9 10 -9 7 0 7 6 1
19 -12 21 -5 31 21 31 16 0 17 3 8 20 -9 16 -8 20 5 20 8 0 15 -9 15 -20 0
-24 16 -26 28 -4 5 9 17 14 27 13 16 -4 15 -9 -14 -41 l-33 -38 -18 23 c-10
12 -21 19 -25 15 -4 -4 0 -14 9 -23 20 -21 20 -21 -4 -47 -17 -19 -20 -19 -20
-5 0 9 -7 17 -15 17 -13 0 -12 -4 5 -22 11 -12 20 -26 20 -32 0 -6 7 -1 15 11
9 13 22 20 30 17 9 -4 15 0 15 10 0 22 58 85 84 92 12 3 35 0 51 -6 15 -6 31
-7 34 -3 4 4 5 7 2 6 -2 -1 -10 5 -19 13 -11 12 -26 14 -54 10 -30 -5 -38 -3
-38 9 0 10 -8 15 -22 14 -50 -4 -67 1 -71 24 l-4 22 -2 -23z m36 -54 c-3 -8
-6 -5 -6 6 -1 11 2 17 5 13 3 -3 4 -12 1 -19z"/>
<path d="M2152 2655 c0 -16 2 -22 5 -12 2 9 2 23 0 30 -3 6 -5 -1 -5 -18z"/>
<path d="M870 2649 c0 -11 4 -18 10 -14 5 3 7 12 3 20 -7 21 -13 19 -13 -6z"/>
<path d="M1797 2650 c-10 -35 -9 -42 6 -37 6 2 17 -3 24 -12 7 -9 12 -11 13
-4 0 6 -6 18 -14 25 -8 8 -16 23 -18 34 -3 16 -5 15 -11 -6z"/>
<path d="M1506 2597 c3 -10 9 -15 12 -12 3 3 0 11 -7 18 -10 9 -11 8 -5 -6z"/>
<path d="M640 2575 c0 -17 2 -17 10 -5 9 13 11 13 20 0 8 -12 10 -11 10 7 0
16 -6 21 -20 20 -13 -1 -20 -8 -20 -22z"/>
<path d="M880 2596 c0 -2 8 -10 18 -17 15 -13 16 -12 3 4 -13 16 -21 21 -21
13z"/>
<path d="M2297 2583 c3 -8 -1 -12 -8 -10 -8 2 -11 2 -6 0 4 -3 7 -11 7 -19 0
-8 5 -14 11 -14 5 0 7 5 4 11 -4 5 0 18 9 27 14 16 14 18 -3 18 -11 0 -17 -6
-14 -13z"/>
<path d="M2686 2592 c-2 -4 13 -25 35 -47 21 -21 39 -33 39 -27 0 7 -4 12 -10
12 -5 0 -10 6 -10 13 -1 12 -34 57 -44 57 -2 0 -7 -3 -10 -8z"/>
<path d="M2070 2568 c-12 -22 -12 -22 6 -6 10 10 15 20 12 24 -4 3 -12 -5 -18
-18z"/>
<path d="M2081 2545 c-18 -19 -29 -35 -24 -35 10 0 45 35 57 58 12 21 2 14
-33 -23z"/>
<path d="M2333 2565 c-9 -9 -9 -16 -2 -20 5 -4 9 -14 7 -22 -4 -19 -58 -27
-58 -10 0 8 -3 7 -9 -2 -10 -16 -31 -6 -31 15 0 8 -4 14 -10 14 -5 0 -10 -4
-10 -9 0 -6 5 -13 10 -16 14 -9 12 -28 -2 -22 -8 2 -14 -4 -15 -17 -1 -11 -4
-34 -7 -51 l-6 -30 15 33 c9 18 19 30 24 27 5 -3 7 3 5 12 -4 15 3 18 48 21
57 3 70 14 59 46 -5 12 -6 27 -4 34 6 16 1 15 -14 -3z"/>
<path d="M1504 2556 c3 -10 1 -26 -6 -35 -12 -14 -11 -14 5 -2 9 7 17 12 18
10 0 -2 2 -16 4 -31 6 -42 15 -68 26 -68 5 0 9 -7 9 -15 0 -8 4 -15 10 -15 11
0 1 32 -12 41 -5 3 -11 25 -13 49 -2 28 -10 49 -25 64 -20 19 -22 19 -16 2z"/>
<path d="M615 2550 c3 -5 8 -10 11 -10 2 0 4 5 4 10 0 6 -5 10 -11 10 -5 0 -7
-4 -4 -10z"/>
<path d="M2586 2551 c-3 -5 1 -12 10 -15 22 -8 25 -4 9 11 -8 7 -16 9 -19 4z"/>
<path d="M640 2541 c0 -8 41 -23 47 -17 2 1 -8 8 -22 14 -14 6 -25 8 -25 3z"/>
<path d="M860 2515 c0 -8 5 -15 10 -15 6 0 10 7 10 15 0 8 -4 15 -10 15 -5 0
-10 -7 -10 -15z"/>
<path d="M1090 2525 c0 -2 14 -10 31 -19 27 -14 30 -14 27 1 -2 13 -58 30 -58
18z"/>
<path d="M1185 2520 c3 -5 8 -10 11 -10 2 0 4 5 4 10 0 6 -5 10 -11 10 -5 0
-7 -4 -4 -10z"/>
<path d="M1971 2521 c-8 -5 -16 -19 -18 -31 -2 -17 1 -21 13 -16 8 3 22 6 30
6 8 0 14 5 14 11 0 7 8 18 18 25 15 12 15 12 -6 7 -12 -3 -25 -9 -28 -14 -3
-5 -10 -9 -16 -9 -7 0 -6 6 2 15 14 17 11 19 -9 6z"/>
<path d="M2623 2514 c-3 -8 0 -21 7 -27 10 -9 11 -7 5 11 -8 29 9 29 29 0 9
-12 16 -17 16 -10 0 16 -25 42 -40 42 -6 0 -13 -7 -17 -16z"/>
<path d="M758 2513 c7 -3 16 -2 19 1 4 3 -2 6 -13 5 -11 0 -14 -3 -6 -6z"/>
<path d="M1775 2510 c3 -5 11 -10 16 -10 6 0 7 5 4 10 -3 6 -11 10 -16 10 -6
0 -7 -4 -4 -10z"/>
<path d="M1110 2480 c0 -5 5 -10 11 -10 5 0 7 5 4 10 -3 6 -8 10 -11 10 -2 0
-4 -4 -4 -10z"/>
<path d="M1501 2474 c0 -11 3 -14 6 -6 3 7 2 16 -1 19 -3 4 -6 -2 -5 -13z"/>
<path d="M1902 2476 c-34 -20 -35 -23 -2 -23 22 0 30 5 30 19 0 10 -1 18 -2
17 -2 -1 -13 -7 -26 -13z"/>
<path d="M1560 2471 c0 -5 7 -11 14 -14 10 -4 13 -1 9 9 -6 15 -23 19 -23 5z"/>
<path d="M2330 2471 c0 -5 5 -13 10 -16 6 -3 10 -2 10 4 0 5 -4 13 -10 16 -5
3 -10 2 -10 -4z"/>
<path d="M1157 2446 c10 -13 22 -22 26 -19 4 3 -2 13 -14 24 -30 26 -34 24
-12 -5z"/>
<path d="M1985 2460 c-3 -5 -1 -10 4 -10 6 0 11 5 11 10 0 6 -2 10 -4 10 -3 0
-8 -4 -11 -10z"/>
<path d="M2412 2450 c-6 -11 -12 -25 -12 -32 0 -6 -8 -20 -17 -31 -18 -19 -17
-20 5 -8 20 10 27 10 41 -3 22 -20 37 -21 21 -1 -10 12 -10 18 1 33 11 14 11
15 -1 5 -24 -22 -31 -15 -24 22 7 40 4 43 -14 15z"/>
<path d="M893 2453 c-7 -3 -13 -13 -13 -24 0 -19 16 -24 37 -11 15 9 -7 41
-24 35z"/>
<path d="M2250 2418 c0 -9 5 -20 11 -23 17 -11 18 -2 3 19 -12 17 -14 17 -14
4z"/>
<path d="M1140 2413 c0 -5 5 -15 10 -23 8 -12 10 -11 10 8 0 12 -4 22 -10 22
-5 0 -10 -3 -10 -7z"/>
<path d="M2726 2381 c-4 -7 -5 -15 -2 -18 9 -9 19 4 14 18 -4 11 -6 11 -12 0z"/>
<path d="M910 2350 c13 -24 35 -27 26 -4 -3 9 -6 18 -6 20 0 2 -7 4 -15 4 -13
0 -14 -4 -5 -20z"/>
<path d="M2260 2355 c0 -9 5 -15 11 -13 6 2 11 8 11 13 0 5 -5 11 -11 13 -6 2
-11 -4 -11 -13z"/>
<path d="M2305 2360 c-3 -5 1 -10 9 -10 8 0 18 5 21 10 3 6 -1 10 -9 10 -8 0
-18 -4 -21 -10z"/>
<path d="M1120 2340 c0 -5 5 -10 10 -10 6 0 10 5 10 10 0 6 -4 10 -10 10 -5 0
-10 -4 -10 -10z"/>
<path d="M2110 2320 c0 -5 7 -7 15 -4 8 4 15 8 15 10 0 2 -7 4 -15 4 -8 0 -15
-4 -15 -10z"/>
<path d="M2150 2240 c0 -5 5 -10 11 -10 5 0 7 5 4 10 -3 6 -8 10 -11 10 -2 0
-4 -4 -4 -10z"/>
<path d="M3460 2223 c0 -7 5 -15 10 -18 6 -4 8 -11 5 -16 -4 -5 -1 -9 4 -9 15
0 13 11 -4 34 -8 11 -15 15 -15 9z"/>
<path d="M2475 1960 c3 -5 11 -10 16 -10 6 0 7 5 4 10 -3 6 -11 10 -16 10 -6
0 -7 -4 -4 -10z"/>
<path d="M2600 1825 c-8 -9 -8 -15 -2 -15 12 0 26 19 19 26 -2 2 -10 -2 -17
-11z"/>
<path d="M3060 935 c0 -9 -6 -18 -14 -21 -8 -3 -17 -27 -21 -59 -6 -52 -7 -53
-53 -73 -46 -20 -46 -21 -19 -27 15 -4 27 -11 27 -17 0 -5 4 -7 9 -3 5 3 12 1
15 -4 4 -5 -4 -13 -16 -17 -13 -4 -27 -12 -31 -18 -6 -7 -7 -5 -4 5 6 19 -38
63 -54 54 -8 -5 -8 -1 1 15 6 12 9 24 7 27 -3 2 -11 -5 -17 -17 -8 -16 -18
-20 -33 -16 -22 5 -22 5 -2 -11 14 -10 16 -17 8 -20 -7 -3 -13 -9 -13 -15 0
-6 7 -8 15 -4 10 3 17 -3 21 -19 4 -14 13 -25 23 -25 9 0 22 -5 29 -12 9 -9
12 -8 12 5 0 26 13 20 31 -15 9 -18 26 -35 39 -38 13 -3 25 -11 28 -18 5 -15
-10 -16 -25 -1 -15 15 -56 1 -49 -17 3 -8 0 -14 -5 -14 -6 0 -9 9 -6 20 3 11
1 20 -4 20 -5 0 -9 -4 -9 -10 0 -5 -9 -14 -20 -20 -17 -9 -24 -7 -40 12 -15
17 -19 19 -20 7 0 -8 12 -29 28 -46 15 -18 32 -54 39 -84 7 -29 23 -63 35 -76
20 -22 21 -23 2 -23 -14 0 -15 -3 -6 -8 10 -7 10 -15 2 -36 -12 -32 -6 -46 18
-46 15 0 15 2 2 10 -12 8 -13 13 -2 30 6 11 12 27 12 36 0 16 1 16 19 0 12
-11 21 -14 26 -7 3 6 -2 11 -11 11 -13 0 -15 3 -7 11 9 9 18 6 38 -9 15 -12
21 -23 15 -27 -5 -3 -10 -1 -10 6 0 7 -3 9 -6 6 -4 -4 -1 -13 5 -21 15 -18 20
-125 8 -191 -4 -27 -8 -64 -9 -82 0 -25 -4 -30 -16 -26 -15 4 -15 3 -2 -6 8
-6 41 -10 73 -9 52 1 58 3 64 26 3 14 0 55 -7 91 -7 36 -15 118 -17 181 -3 67
-11 126 -19 142 -26 51 -87 388 -81 451 3 31 3 57 1 57 -2 0 -4 -7 -4 -15z m7
-221 c-3 -3 -12 -4 -19 -1 -8 3 -5 6 6 6 11 1 17 -2 13 -5z m-153 -20 c3 -8 2
-12 -4 -9 -6 3 -10 10 -10 16 0 14 7 11 14 -7z m82 -41 c-10 -10 -19 5 -10 18
6 11 8 11 12 0 2 -7 1 -15 -2 -18z m81 -5 c-3 -7 -5 -2 -5 12 0 14 2 19 5 13
2 -7 2 -19 0 -25z m-7 -103 c0 -8 -4 -15 -10 -15 -5 0 -10 7 -10 15 0 8 5 15
10 15 6 0 10 -7 10 -15z m-134 -22 c-10 -10 -19 5 -10 18 6 11 8 11 12 0 2 -7
1 -15 -2 -18z m94 12 c0 -8 -7 -15 -15 -15 -8 0 -15 7 -15 15 0 8 7 15 15 15
8 0 15 -7 15 -15z m-27 -23 c13 -14 14 -21 4 -31 -16 -16 9 -32 40 -24 32 8
30 -26 -3 -50 -28 -21 -44 -16 -24 8 13 15 8 19 -23 15 -15 -1 -17 4 -12 32 5
25 2 38 -9 47 -14 12 -16 10 -16 -10 -1 -21 -2 -22 -11 -6 -21 36 24 52 54 19z
m82 -12 c3 -5 -1 -10 -10 -10 -9 0 -13 5 -10 10 3 6 8 10 10 10 2 0 7 -4 10
-10z m20 -50 c0 -16 -3 -30 -6 -30 -12 0 -16 49 -5 54 6 2 11 5 11 5 0 1 0
-12 0 -29z m34 -131 c-8 -5 -17 -9 -21 -9 -12 0 -9 25 4 38 9 9 14 9 21 -4 6
-11 5 -19 -4 -25z m27 -211 c1 -31 -1 -37 -7 -23 -10 26 -11 65 -1 65 4 0 8
-19 8 -42z m-41 12 c-3 -5 -12 -10 -18 -10 -7 0 -6 4 3 10 19 12 23 12 15 0z
m25 -60 c0 -16 -7 -20 -35 -20 -34 0 -34 1 -17 19 23 26 52 27 52 1z"/>
<path d="M2845 930 c3 -5 8 -10 11 -10 2 0 4 5 4 10 0 6 -5 10 -11 10 -5 0 -7
-4 -4 -10z"/>
<path d="M2940 840 c0 -5 4 -10 9 -10 6 0 13 5 16 10 3 6 -1 10 -9 10 -9 0
-16 -4 -16 -10z"/>
<path d="M2821 774 c0 -11 3 -14 6 -6 3 7 2 16 -1 19 -3 4 -6 -2 -5 -13z"/>
<path d="M2865 680 c6 -10 4 -12 -7 -7 -12 4 -14 1 -11 -14 7 -24 10 -24 23 0
7 14 7 22 -2 27 -7 5 -8 3 -3 -6z"/>
<path d="M2890 635 c-14 -16 -3 -20 19 -6 8 5 9 11 3 15 -5 3 -15 -1 -22 -9z"/>
<path d="M2910 599 c0 -5 5 -7 10 -4 6 3 10 8 10 11 0 2 -4 4 -10 4 -5 0 -10
-5 -10 -11z"/>
<path d="M2900 411 c0 -5 5 -13 10 -16 6 -3 10 -2 10 4 0 5 -4 13 -10 16 -5 3
-10 2 -10 -4z"/>
<path d="M2920 326 c0 -9 5 -16 10 -16 6 0 10 4 10 9 0 6 -4 13 -10 16 -5 3
-10 -1 -10 -9z"/>
<path d="M2996 304 c-4 -10 -1 -14 6 -12 15 5 23 28 10 28 -5 0 -13 -7 -16
-16z"/>
<path d="M3025 280 c-3 -5 -1 -10 4 -10 6 0 11 5 11 10 0 6 -2 10 -4 10 -3 0
-8 -4 -11 -10z"/>
<path d="M2935 270 c-3 -5 -2 -17 3 -26 7 -13 11 -14 17 -3 5 7 4 14 -3 17 -7
2 -10 8 -6 13 3 5 3 9 0 9 -3 0 -8 -4 -11 -10z"/>
<path d="M3030 246 c0 -10 9 -16 21 -16 24 0 21 23 -4 28 -10 2 -17 -3 -17
-12z"/>
<path d="M2980 236 c0 -11 5 -14 12 -10 8 5 9 2 5 -9 -3 -10 -2 -17 3 -17 15
0 12 26 -5 40 -12 10 -15 9 -15 -4z"/>
<path d="M2950 188 c0 -9 7 -19 16 -22 15 -6 15 -4 3 11 -7 10 -15 20 -16 22
-2 2 -3 -3 -3 -11z"/>
<path d="M2995 120 c3 -5 11 -10 16 -10 6 0 7 5 4 10 -3 6 -11 10 -16 10 -6 0
-7 -4 -4 -10z"/>
<path d="M3048 123 c7 -3 16 -2 19 1 4 3 -2 6 -13 5 -11 0 -14 -3 -6 -6z"/>
<path d="M6355 100 c-227 -5 -250 -7 -253 -22 -3 -17 7 -18 125 -16 l128 2
-125 6 -125 6 175 2 c97 1 192 -3 212 -8 28 -8 44 -8 60 2 13 7 64 13 118 14
112 2 110 1 110 14 0 6 -34 9 -87 8 -49 -1 -200 -5 -338 -8z"/>
<path d="M2954 85 c4 -24 16 -30 16 -7 0 12 -4 22 -9 22 -5 0 -8 -7 -7 -15z"/>
<path d="M5740 89 c-168 -4 -466 -11 -662 -14 -289 -6 -356 -10 -351 -21 2 -7
10 -11 17 -8 6 2 194 6 416 8 443 4 801 13 868 22 23 3 40 9 37 15 -4 5 -9 8
-13 7 -4 0 -144 -5 -312 -9z m-307 -26 c-24 -2 -62 -2 -85 0 -24 2 -5 4 42 4
47 0 66 -2 43 -4z"/>
<path d="M4230 62 c-5 -2 -10 -8 -10 -13 0 -5 80 -9 185 -9 117 0 185 4 185
10 0 13 73 13 87 -1 7 -7 12 -6 17 6 6 15 -13 16 -224 13 -126 -1 -234 -4
-240 -6z"/>
<path d="M2990 50 c0 -5 4 -10 9 -10 6 0 13 5 16 10 3 6 -1 10 -9 10 -9 0 -16
-4 -16 -10z"/>
<path d="M3376 53 c-87 -3 -97 -5 -80 -18 13 -9 33 -12 62 -8 32 4 46 2 53 -8
7 -11 9 -10 9 4 0 11 5 15 11 11 13 -8 53 -7 642 10 59 2 111 6 114 10 6 6
-618 5 -811 -1z"/>
<path d="M26 40 c12 -5 24 -16 28 -25 3 -9 11 -13 17 -9 6 3 34 6 62 5 28 0
54 4 57 9 3 5 19 11 35 14 17 2 22 1 13 -1 -39 -10 -6 -32 36 -24 5 1 58 4
117 6 60 2 113 6 119 10 5 3 20 -1 32 -9 13 -9 27 -12 37 -7 13 6 489 5 681
-2 25 -1 82 0 128 1 66 2 82 5 82 17 0 14 3 14 25 -1 13 -8 29 -13 34 -9 6 3
61 6 123 7 100 0 109 2 81 13 -24 10 -212 13 -879 13 -471 0 -840 -3 -828 -8z
m564 -10 c0 -5 -4 -10 -10 -10 -5 0 -10 5 -10 10 0 6 5 10 10 10 6 0 10 -4 10
-10z m197 4 c-3 -3 -12 -4 -19 -1 -8 3 -5 6 6 6 11 1 17 -2 13 -5z"/>
<path d="M1822 36 c-29 -6 -50 -15 -46 -19 10 -9 94 -9 94 1 0 4 21 6 47 4
126 -7 398 0 411 10 9 8 16 8 20 1 11 -16 195 -23 223 -7 16 8 29 9 42 3 10
-6 37 -8 60 -4 85 11 157 13 157 4 0 -14 34 -11 56 6 17 13 -41 14 -496 13
-341 0 -533 -5 -568 -12z"/>
<path d="M2910 43 c0 -5 5 -15 10 -23 8 -12 10 -11 10 8 0 12 -4 22 -10 22 -5
0 -10 -3 -10 -7z"/>
<path d="M2971 24 c0 -11 3 -14 6 -6 3 7 2 16 -1 19 -3 4 -6 -2 -5 -13z"/>
</g>
</svg>
